<svg xmlns="http://www.w3.org/2000/svg" viewBox="0 0 308 39">
    <g fill="#154281">
        <path fill-rule="evenodd" d="M21.946 20.549h2.25c.66.029 1.2.029 1.831.24 2.069.75 2.189 3 2.189 3.569 0 .241-.03.871-.24 1.5-.24.63-.6 1.05-.78 1.23-.96.959-2.16 1.019-3.42 1.079h-1.83v-7.62zm0-9.149h1.83c.33 0 1.92-.12 3.001.81.96.84 1.02 2.22 1.02 2.58 0 1.56-.78 2.941-2.37 3.36-.48.15-.84.181-1.8.181h-1.681v-6.931zm-2.639-2.191v21.179h4.439c1.71 0 2.46-.09 3.27-.33 1.38-.42 3.93-1.77 3.93-5.581 0-1.889-.631-2.909-1.2-3.569-.75-.87-1.65-1.23-2.671-1.619.631-.21 2.371-.871 3.091-2.82.299-.81.33-1.65.33-1.95 0-2.64-1.38-4.56-3.99-5.13-.84-.21-1.59-.21-2.43-.18h-4.769m19.205 12.24c.181-2.31.691-3.54 1.59-4.26.48-.36 1.08-.57 1.71-.57.9 0 1.71.42 2.19 1.2.51.75.691 1.77.78 3.63h-6.27zm7.951 5.88c-1.77 1.02-2.851 1.23-3.841 1.23-1.26 0-1.98-.451-2.4-.78-1.71-1.35-1.71-3.99-1.71-4.409l8.85-.031v-.63c0-2.01-.12-3.901-1.2-5.64-.96-1.56-2.46-2.43-4.291-2.43-2.909 0-6.03 2.16-6.03 8.13 0 3.479 1.2 5.339 2.34 6.36 1.17 1.081 2.49 1.53 4.05 1.53 1.649 0 3.15-.48 3.66-.689.18-.089.36-.181.54-.301l.03-2.34"/>
        <path d="M52.36 14.88c.059.809.12 1.62.149 2.43.06 1.05.06 2.1.06 3.151v9.929h2.55v-9.149c.029-.571.029-1.141.21-1.68.27-.751 1.02-1.741 1.77-2.1.36-.18 1.32-.39 1.77-.39.27 0 .331.03.479.089v-2.52c-.869-.03-2.459 0-3.72 1.83-.27.359-.51.779-.72 1.2-.03-.931-.03-1.86-.15-2.76l-2.4-.03m19.043 0h-3.239v-3.93l-2.61.75v3.18h-2.461v2.1h2.46v9.09c.03 1.2-.03 2.19.72 3.241.57.75 1.47 1.26 3.39 1.26.84 0 1.35-.181 1.71-.3l.029-2.101c-.659.271-1.05.3-1.38.3-.87 0-1.32-.33-1.53-.63-.328-.479-.328-1.439-.328-2.009v-8.85h3.24v-2.1"/>
        <path fill-rule="evenodd" d="M78.442 21.449c.18-2.31.69-3.54 1.59-4.26.48-.36 1.08-.57 1.71-.57.9 0 1.71.42 2.19 1.2.509.75.69 1.77.779 3.63h-6.269zm7.95 5.88c-1.77 1.02-2.85 1.23-3.839 1.23-1.261 0-1.98-.451-2.4-.78-1.71-1.35-1.71-3.99-1.71-4.409l8.85-.031v-.63c0-2.01-.12-3.901-1.2-5.64-.96-1.56-2.46-2.43-4.29-2.43-2.91 0-6.029 2.16-6.029 8.13 0 3.479 1.199 5.339 2.339 6.36 1.17 1.081 2.49 1.53 4.05 1.53 1.649 0 3.15-.48 3.66-.689.18-.089.361-.181.54-.301l.03-2.34"/>
        <path d="M92.499 7.469v22.92h2.58v-22.92h-2.58m16.061 7.65c-.359-.09-1.77-.48-3.12-.48-2.97 0-4.201 1.74-4.561 2.88-.21.66-.21 1.26-.21 1.5 0 1.02.09 2.4 2.01 3.63.57.36 1.049.6 1.26.69 1.23.57 2.939 1.139 2.939 2.82 0 .84-.569 2.369-2.7 2.369-1.291 0-2.64-.63-2.941-.779l-.538-.3-.24 2.43c1.649.569 2.279.779 4.019.779.24 0 1.14 0 1.92-.239 1.921-.631 2.97-2.49 2.97-4.441 0-1.799-.75-2.851-2.22-3.81-.45-.27-.93-.51-1.38-.75-1.05-.51-2.579-1.08-2.579-2.55 0-.72.45-2.13 2.34-2.13 1.08 0 2.7.63 2.79.691l.24-2.31m24.401 4.681c0-1.17-.091-1.56-.24-2.16-.54-1.86-2.07-3-4.02-3-1.02 0-2.22.24-3.51 1.95-.151.181-.3.39-.421.57-.33-.6-.419-.75-.69-1.08-.72-.96-1.649-1.47-2.88-1.47-2.011 0-3.06 1.079-4.14 2.549 0-.75 0-1.53-.03-2.25l-2.31-.03.06 1.979v13.53h2.58v-10.021c.031-.569.059-.989.271-1.499.27-.78 1.02-1.5 1.769-1.8.42-.18.75-.18.93-.18.811 0 1.26.33 1.53.57.75.719.78 1.77.81 2.76v10.17h2.55v-9.78c0-.509.03-1.109.149-1.62.211-.72.811-1.529 1.56-1.889.18-.09.57-.241 1.141-.271 2.25 0 2.31 2.28 2.34 2.791v10.769h2.55v-10.589"/>
        <path fill-rule="evenodd" d="M147.31 24.239c0 .27 0 1.081-.271 1.92-.269.84-.72 1.35-.959 1.59-.661.63-1.381.9-2.31.9-.75 0-1.321-.21-1.831-.751-.27-.3-.749-.93-.749-1.92 0-.719.299-1.589.78-2.13.87-.99 2.58-1.35 5.34-1.199v1.589zm2.4-3.839c-.03-.901-.03-1.8-.301-2.701-.689-2.19-2.729-3.09-4.859-3.09-2.25 0-3.72.81-4.501 1.23l.241 2.339c1.68-1.26 2.999-1.5 3.93-1.5 2.01 0 2.67 1.199 2.91 2.01.24.84.18 2.07.18 2.251l-1.14-.031c-3.75 0-5.611.901-6.661 2.431-.75 1.05-.81 2.13-.81 2.61 0 1.71.781 2.88 1.2 3.33.511.54 1.561 1.379 3.39 1.379 1.861 0 3.151-.93 4.14-2.431l-.03.571.09 1.589h2.401c-.06-.57-.09-1.139-.121-1.71-.029-.659-.059-1.289-.059-1.949v-6.33"/>
        <path d="M156.3 14.88c.06 1.5.03 2.97.03 4.439v11.07h2.579v-9.09c.061-1.14.09-2.251.78-3.24.571-.719 1.44-1.17 2.371-1.17 1.709 0 2.19 1.41 2.28 1.919.119.451.119.96.15 1.411v10.169h2.55v-10.679c0-.6.06-3.06-1.891-4.38-.36-.24-1.2-.69-2.369-.69-2.221 0-3.36 1.5-3.781 2.13-.119.149-.239.33-.359.54 0-.81.03-1.621 0-2.4l-2.34-.03m17.34.001c.06 1.5.03 2.97.03 4.439v11.07h2.58v-9.09c.06-1.14.09-2.251.78-3.24.57-.719 1.439-1.17 2.37-1.17 1.71 0 2.189 1.41 2.28 1.919.12.451.12.96.15 1.411v10.169h2.55v-10.679c0-.6.06-3.06-1.89-4.38-.361-.24-1.201-.69-2.37-.69-2.221 0-3.36 1.5-3.78 2.13-.12.149-.24.33-.36.54 0-.81.03-1.621 0-2.4l-2.34-.03m29.22-5.22c-1.98-.6-3.78-.779-4.53-.779-2.461 0-5.071 1.08-6.121 3.479-.419.991-.449 1.95-.449 2.34 0 2.22.99 3.54 1.59 4.17.839.87 1.77 1.26 3.84 2.4.93.51 1.799.96 2.34 1.921.33.57.36 1.2.36 1.44 0 1.26-.78 2.4-2.01 2.79-.241.06-.6.15-1.2.15-1.86 0-3.39-.721-3.93-1.02l-.481-.27-.239 3.48c2.31.84 3.989.931 5.01.931 3.929 0 5.549-1.95 6.269-3.51.57-1.23.631-2.28.631-2.791 0-2.28-1.14-3.75-1.74-4.38-.391-.39-.931-.81-1.98-1.44l-1.501-.811c-.959-.57-1.439-.78-1.889-1.109-.661-.54-1.05-1.261-1.05-2.1 0-.27.029-.81.389-1.38.78-1.26 2.34-1.23 2.701-1.23 1.409 0 2.73.481 3.149.661.211.09.421.21.66.3l.18-3.241m13.961 5.099h-3.12v-4.38l-3.66 1.141v3.24h-2.61v2.731h2.55l-.03 8.25c-.03 1.529.15 3.06 1.5 4.049 1.171.84 2.461.811 2.91.811 1.2 0 2.07-.21 2.55-.33l-.09-2.76c-.42.21-.69.27-1.2.27-.36 0-1.439 0-1.799-1.14-.12-.42-.12-.75-.12-1.139v-8.011h3.12v-2.731"/>
        <path fill-rule="evenodd" d="M221.9 8.129v3.69h3.959v-3.69h-3.96zm.09 6.63v15.63h3.75v-15.63h-3.75"/>
        <path d="M230.3 14.759v2.731h2.61v12.9h3.72v-12.9h2.819v-2.731h-2.82v-2.129c.03-.81.06-1.621.84-2.13.33-.211.72-.3 1.11-.3.601 0 1.08.21 1.29.27l.059-2.791c-.36-.061-1.35-.271-2.46-.271-1.65 0-2.67.51-3.21.99-.12.09-.39.39-.63.811-.72 1.2-.69 2.519-.72 2.97v2.579h-2.61m21.782.001h-3.12v-4.38l-3.66 1.141v3.24h-2.61v2.731h2.551l-.031 8.25c-.03 1.529.15 3.06 1.5 4.049 1.17.84 2.46.811 2.91.811 1.199 0 2.07-.21 2.549-.33l-.089-2.76c-.421.21-.691.27-1.2.27-.36 0-1.44 0-1.8-1.14-.12-.419-.12-.75-.12-1.139v-8.012h3.12v-2.731m17.67 0h-3.75v9.15c-.03.81-.089 1.17-.18 1.53-.15.51-.84 2.159-2.64 2.159-.57 0-.96-.179-1.14-.299-.961-.54-1.021-1.651-1.05-2.61v-9.931h-3.75v10.081c.029 1.469.06 2.97 1.02 4.199 1.14 1.5 3.03 1.62 3.57 1.62 2.22 0 3.51-1.319 3.99-1.98.18-.21.33-.479.45-.719l.09 2.429h3.57c-.12-1.379-.12-2.791-.18-4.199v-11.43m5.96 0c.12 1.32.15 2.61.18 3.93v11.7h3.75v-9.149c.03-.872.03-1.71.571-2.491.719-1.02 1.74-1.14 2.19-1.14.239 0 .659 0 1.169.3.9.509 1.05 1.62 1.05 2.551v9.929h3.75v-10.621c0-.27 0-1.409-.329-2.369-.661-1.86-2.371-2.91-4.32-2.91-2.25 0-3.54 1.38-3.991 2.039-.15.21-.299.48-.42.75 0-.84-.06-1.65-.089-2.521h-3.511"/>
        <path fill-rule="evenodd" d="M300.45 17.369c1.38.061 2.039 1.11 2.25 1.471.69 1.35.63 3.541.63 3.749 0 2.401-.36 3.511-1.23 4.379-.21.211-.69.691-1.56.691-.99 0-1.53-.51-1.769-.811-.241-.3-.362-.601-.421-.749-.57-1.381-.54-3.03-.54-3.421 0-2.549.36-4.17 1.35-4.92.51-.39 1.05-.39 1.29-.39zm6.54-.54l.12-2.07h-3.541c-.089.81-.089 1.59-.089 2.4-.09-.12-.27-.479-.54-.81-.24-.3-.51-.57-.781-.81-.449-.361-1.319-1.05-2.76-1.05-.689 0-1.92.12-3.149 1.26-1.261 1.14-2.34 3.06-2.34 6.72 0 2.13.36 4.56 1.83 6.271.96 1.11 2.13 1.649 3.63 1.649.81 0 1.38-.179 1.65-.3 1.38-.6 2.22-2.04 2.43-2.37-.12 2.37-.06 3.533-.63 4.604-.21.387-.48.743-.84 1.012-.96.714-2.34.773-2.64.773-1.68 0-3.39-.743-3.78-.922l-.75-.387-.18 3.319c.99.33 2.64.9 5.13.9 1.11 0 1.8-.12 2.249-.209 1.351-.3 2.311-.991 2.703-1.321 1.949-1.677 2.129-4.148 2.219-4.92.03-.509.06-1.05.06-1.589v-12.149"/>
        <path d="M0 .005v38.62h2.58v-38.62h-2.58"/>
    </g>
</svg>
