<?xml version="1.0" encoding="UTF-8"?>
<svg xmlns="http://www.w3.org/2000/svg" height="47" width="242" version="1.1"><g transform="matrix(1.25,0,0,-1.25,0,46.375)"><g transform="scale(.1)"><path d="m365.1 139.82c3.703 14.578 5.879 29.77 5.894 45.496-10.48-7.324-21.488-15.523-32.777-24.629 6.265-8.601 15.344-15.652 26.883-20.867" fill="#366dbd"/><path d="m367.15 223.22c-1.66 8.047-4.011 15.82-6.672 23.441-2.812-0.344-5.789-0.816-8.718-1.25-10.27-12.558-17.43-25.515-20.887-38.187 12.77 6.179 24.926 11.484 36.277 15.996" fill="#366dbd"/><path d="m268.03 233.59c29.699 11.023 56.278 17.754 79.348 21.457 2.168 2.511 4.344 5.027 6.73 7.488-4.777 10.445-10.449 20.371-16.996 29.66-26.551-17.746-49.812-37.582-69.082-58.605" fill="#366dbd"/><path d="m325.11 162.72c-1.207 2.34-2.304 4.726-3.195 7.226-2.27 6.438-3.332 13.141-3.332 20.004-35.141-18.519-73.859-43.886-111.83-78.297-1.899-19.011 0-37.664 6.258-55.375 1.441-4.0703 3.121-8.0312 4.984-11.898 32.5 49.133 70.887 88.246 107.12 118.34" fill="#366dbd"/><path d="m368.72 213.19c-12.449-5.012-25.832-10.918-39.949-17.989-0.621-7.57 0.046-14.961 2.511-21.945 0.493-1.379 1.297-2.594 1.903-3.914 12.925 10.363 25.433 19.504 37.246 27.59-0.336 5.492-0.91 10.906-1.711 16.258" fill="#366dbd"/><path d="m319.69 201.65c2.34 13.672 8.61 27.723 18.231 41.395-24.422-4.641-52.391-12.605-83.582-25.484-23.328-29.207-38.988-60.149-45.235-90.567 37.813 32.778 76.028 56.953 110.59 74.656" fill="#366dbd"/><path d="m243.55 9.3867c56.57 18.641 101.15 63.672 118.99 120.62-13.664 5.898-24.586 14.082-32.16 24.234-36.34-30.33-74.81-69.924-106.99-119.77 5.49-9.056 12.31-17.396 20.16-25.083" fill="#366dbd"/><path d="m191.99 0.32812c6.246 12.027 12.906 23.539 19.86 34.59-3.145 5.8086-5.989 11.777-8.204 18.047-5.574 15.75-7.918 32.195-7.398 48.961-21.8-20.836-43.21-44.735-63.38-72.2-2.2-6.64-4.23-13.328-6.14-20.05 18.5-6.1878 38.23-9.68 58.82-9.68 2.172 0 4.289 0.25 6.445 0.32812" fill="#366dbd"/><path d="m232.77 219.03-0.047 0.094c0.074 0.035 0.14 0.059 0.215 0.094 28.382 31.086 60.804 58.988 96.773 82.89-34.01 42.01-85.92 68.9-144.16 68.9-102.46 0-185.55-83-185.55-185.48 0-78.37 48.691-145.25 117.41-172.43 21.71 75.758 61.18 146.55 115.36 205.94" fill="#366dbd"/><path d="m232.62 6.2656c-5.64 5.9644-10.63 12.34-15.04 19.039-4.84-7.879-9.49-16.024-13.97-24.391 9.95 0.961 19.59 2.879 29.01 5.3516" fill="#366dbd"/><path d="m197.46 116.58c3.691 28.645 15.488 57.898 34.063 86.047-36.981-42.645-66.446-90.832-87.317-142.29 17.25 20.949 35.145 39.625 53.254 56.246" fill="#366dbd"/><path d="m1357 193.39h87.28v-160.57c-23.34-12.602-48.54-17.734-75.15-17.734-114.36 0-142.36 107.36-142.36 169.43 0 83.554 49.94 162.91 141.43 162.91 26.14 0 58.35-10.27 68.14-15.875l-1.4-31.75c-12.6 9.8-43.88 20.539-68.62 20.539-46.68 0-108.76-35.473-108.76-138.63 0-59.746 27.07-139.57 112.96-139.57 16.81 0 29.87 1.8711 44.82 9.8047v114.36h-58.35v27.079" fill="#2b498f"/><path d="m1517.1 344.15h138.17v-27.07h-109.23v-115.76h104.09v-27.078h-104.09v-128.82h114.35v-27.07h-143.29v325.8" fill="#2b498f"/><path d="m1753.3 45.422h29.87c72.35 0 112.02 54.144 112.02 135.83 0 50.879-7.93 135.83-117.16 135.83h-24.73v-271.66zm-28.94 298.73h42.47c108.29 0 159.17-52.746 159.17-158.23 0-94.75-46.21-167.57-151.23-167.57h-50.41v325.8" fill="#2b498f"/><path d="m394.48 185.52c0-9.758 0.976-19.258 2.433-28.606 21.645 35.375 41.086 60.777 51.918 74.043-0.039 0.016-0.09 0.027-0.133 0.043-9.734-4.559-29.027-14.242-53.418-29.582-0.441-5.25-0.8-10.535-0.8-15.898" fill="#609fdb"/><path d="m472.04 249.55c-2.711 0-5.957-0.656-9.148-1.848-5.485-2.054-8.715-4.855-10.04-6.625l0.504-1.226c0.719-0.024 1.692-0.02 2.973 0.023 0.887 1.012 1.438 1.617 1.512 1.699l1.554-1.429c1.801 0.218 3.692 0.547 5.559 1.238 7.121 2.691 10.512 6.711 10.727 7.953-0.086-0.289-1.286 0.215-3.641 0.215" fill="#609fdb"/><path d="m409.6 258.87c19.364-0.98 32.782-3.906 39.403-5.754-5.403 5.242-15.84 14.641-30.028 24.301-3.433-5.996-6.617-12.156-9.375-18.547" fill="#609fdb"/><path d="m459.06 132.68c-0.75 48.394 1.504 82.008 2.886 97.574-0.296-0.059-0.562-0.039-0.863-0.09-9.402-11.09-34.051-41.703-61.348-87.789 0.977-4.098 1.915-8.215 3.161-12.203 5.964-0.625 12.144-1.02 18.64-1.02 12.114 0 24.735 1.313 37.524 3.528" fill="#609fdb"/><path d="m558.78 171.62c21.113 13.691 38.34 29.449 50.246 45.762-66.183 18.84-116.61 23.363-125.95 24.066 11.172-9.011 39.359-32.672 75.703-69.828" fill="#609fdb"/><path d="m463.59 41.207c-2.469 30.195-3.766 57.453-4.324 81.473-12.836-2.145-25.532-3.457-37.731-3.457-5.109 0-10.039 0.242-14.855 0.617 11.777-31.047 31.515-58.137 56.91-78.633" fill="#609fdb"/><path d="m468.93 134.6c12.707 2.735 25.508 6.317 38.183 11.075 15.489 5.8 29.918 12.765 43.059 20.543-37.633 38.324-66.145 61.8-75.231 69.031-0.871-0.52-1.742-1.031-2.699-1.504-1.226-12.262-4.035-46.777-3.312-99.145" fill="#609fdb"/><path d="m479.61 258.35c-0.078-0.133-0.168-0.278-0.238-0.403 0.317-0.133 0.586-0.308 0.883-0.461l-0.645 0.864" fill="#609fdb"/><path d="m608.53 318.42c24.746 6.582 52.547 12.004 83.215 14.93-23.289 17.621-50.808 29.832-80.84 34.875-0.73 0.054-1.457 0.113-2.191 0.171-21.426-9-40.195-20.035-56.164-31.812 22.57-2.152 41.629-8.449 55.98-18.164" fill="#609fdb"/><path d="m557.2 158.99c-14.164-8.617-29.769-16.3-46.593-22.605-13.747-5.16-27.668-9.059-41.465-11.918 0.574-26.496 2.07-57.024 5.062-91.192 30.03-20.903 66.46-33.243 105.82-33.243 6.273 0 12.468 0.33203 18.585 0.94141 21.96 10.638 42.42 22.68 61.15 35.762-36.04 49.54-71.92 90.49-102.55 122.26" fill="#609fdb"/><path d="m405.81 248.86c-1.593-4.367-3.054-8.796-4.32-13.32 15.446 4.914 27.848 8.012 36.297 9.871-7.5 1.457-18.117 2.973-31.977 3.449" fill="#609fdb"/><path d="m636.93 272.66c1.511-15.879-3.051-32.789-12.746-49.437 43.183-13.098 91.91-32.133 139.91-59.699 0.851 7.226 1.422 14.542 1.422 22 0 27.074-5.93 52.707-16.348 75.89-40.488 8.629-78.43 11.555-112.24 11.246" fill="#609fdb"/><path d="m565.73 164.45c30.636-31.883 66.316-72.734 102.09-121.93 41.082 30.176 73.063 65.403 92.942 101.77 0.656 2.875 1.215 5.785 1.734 8.715-49.328 28.785-99.586 48.293-143.76 61.515-12.41-17.941-30.609-35.195-53.011-50.078" fill="#609fdb"/><path d="m624.97 282.32c-0.114 0.352-0.153 0.727-0.278 1.078-3.367 9.512-9.757 17.598-18.367 24.25-51.816-14.324-88.902-33.664-107.98-45.082 22.554 6.809 67.757 17.895 126.62 19.754" fill="#609fdb"/><path d="m484.04 265.32c14.441 9.407 53.168 32.235 111.25 49.399-14.398 7.508-33.07 11.816-54.797 12.511-29.144-23.964-47.664-48.691-56.453-61.91" fill="#609fdb"/><path d="m463.18 273.26c-0.055 11.433 1.094 27.402 5.886 44.363-6.695-1.941-13.386-4.105-20.039-6.594l14.153-37.769" fill="#609fdb"/><path d="m432.09 233.89c-8.731-2.137-20.137-5.297-33.52-9.731-0.703-3.308-1.148-6.711-1.672-10.078 13.918 8.496 25.961 15.082 35.192 19.809" fill="#609fdb"/><path d="m541.51 366.94c-16.043-3.386-31.254-8.945-45.477-16.183-4.515-6.098-8.164-12.5-11.097-19.024 16.878 3.633 33.597 5.7 49.523 5.7 1.023 0 1.996-0.055 3.008-0.075 14.195 11.371 30.738 22.375 49.613 31.953-1.125 0.012-2.219 0.082-3.355 0.082-13.825 0-27.946-0.882-42.215-2.453" fill="#609fdb"/><path d="m456.97 324.08c5.265 1.73 10.515 3.363 15.797 4.758 1.445 3.797 3.054 7.59 4.949 11.355-7.328-4.847-14.199-10.297-20.746-16.113" fill="#609fdb"/><path d="m473.31 266.99c7.153 11.246 24.184 35.317 51.918 60.043-14.511-0.66-29.511-2.859-44.699-6.539-7.097-21.375-7.676-42.023-7.219-53.504" fill="#609fdb"/><path d="m634.06 286.71c0.476-1.356 0.699-2.766 1.07-4.141 32.82 0.41 69.523-2.207 108.64-9.933-10.469 19.633-24.446 37.054-40.969 51.679-31.141-2.332-59.5-7.261-84.684-13.554 7.254-6.875 12.707-14.91 15.946-24.051" fill="#609fdb"/><path d="m665.47 28.734c-10.51-7.363-21.5-14.422-33.03-21.074 13.011 3.8281 25.437 8.9804 37.089 15.41-1.351 1.918-2.703 3.7774-4.054 5.6641" fill="#609fdb"/><path d="m673.55 34.535c1.496-2.0977 3-4.1602 4.5-6.2891 30 18.742 54.18 45.754 69.45 77.924-19.41-25.584-44.44-49.9-73.95-71.635" fill="#609fdb"/><path d="m614.77 226.02c9.586 15.746 14.058 31.675 12.312 46.445-67.332-1.879-116.6-16.152-134.01-21.969 20.059-2.094 65.543-8.234 121.7-24.476" fill="#609fdb"/><path d="m424.21 286.01c17.434-11.809 29.402-23.297 34.113-28.121l-18.367 49.039c-5.723-6.586-10.992-13.559-15.746-20.918" fill="#609fdb"/><path d="m799.94 247.8c-2.528-7.086-4.708-14.321-6.368-21.77-0.05-11.734-1.48-23.633-4.324-35.586-0.043-1.656-0.246-3.265-0.246-4.929 0-13.778 1.609-27.161 4.457-40.082 22.598-14.856 44.742-31.704 65.715-50.961 0.695-0.5938 37.144-32.152 78.555-90.801 6.359-1.2773 12.847-2.1914 19.425-2.8008 24.391 45.719 36.453 92.625 33.707 137.46-56.402 52.316-112.64 76.875-113.52 77.25-26.235 13.496-52.145 24.031-77.402 32.219" fill="#a6cdde"/><path d="m852.59 87.035c-17.77 16.315-36.39 30.855-55.41 43.935 18.27-59.509 65.7-106.16 125.62-123.52-37.68 51.374-69.5 78.98-70.21 79.585" fill="#a6cdde"/><path d="m974.51 0c36.462 0 70.362 10.68 99.032 28.863-19.4 39.906-45.53 72.992-72.44 99.657 0.5-42.082-11.26-85.633-33.29-128.18 2.24-0.08219 4.44-0.34 6.7-0.34" fill="#a6cdde"/><path d="m865.2 311.52c-7.539 1.723-14.984 3.266-22.351 4.653-16.696-16.821-30.188-36.809-39.485-59.012 25.528-8.297 51.703-18.973 78.196-32.598 0.664-0.281 52.937-23.101 107.87-71.605-1.754 12.898-4.645 25.609-9.016 38.012-14.066 40.011-48.457 72.777-74.824 93.211l0.105 0.136c-12.98 9.762-26.519 18.809-40.492 27.203" fill="#a6cdde"/><path d="m974.51 371c-45.059 0-86.328-16.059-118.46-42.742 4.336-2.403 8.637-4.848 12.891-7.383 0.5-0.117 0.988-0.207 1.492-0.324l-0.121-0.516c92.113-55.34 164.48-140.55 201.18-244.75 4.63-13.148 8.51-26.398 11.91-39.695 46.32 33.73 76.56 88.242 76.56 149.93 0 102.48-83.1 185.48-185.49 185.48" fill="#a6cdde"/><path d="m981.89 212.25c2.98-5.828 5.711-11.789 7.886-17.98 5.875-16.68 9.297-33.879 10.667-51.372 22.34-21.074 44.54-46.433 63.4-76.265-0.6 1.7813-1.1 3.5703-1.73 5.3477-18.33 52.074-45.77 99.292-80.223 140.27" fill="#a6cdde"/></g></g></svg>