<svg xmlns="http://www.w3.org/2000/svg" version="1.1" width="226" height="33"><g transform="matrix(1.25 0 0 -1.25 -.49931 78.302)"><g transform="translate(139.97 60.717)"><path d="m0 0h3.181l5.366-18.849h0.066l5.666 18.849h2.915l-7.255-23.123h-2.915l-7.024 23.123" fill="#5f9fdb"/></g><path d="m160.5 37.594h2.915v23.123h-2.915v-23.123z" fill="#5f9fdb"/><g transform="translate(167.59 40.344)"><path d="m0 0 9.408 17.856h-9.109v2.517h12.588v-2.517l-9.706-18.088h9.904v-2.518h-13.085v2.75" fill="#5f9fdb"/></g><g transform="translate(96.726 50.034)"><path d="m0 0h6.193v-11.391c-1.656-0.895-3.445-1.26-5.332-1.26-8.113 0-10.099 7.617-10.099 12.021 0 5.928 3.543 11.558 10.033 11.558 1.853 0 4.139-0.729 4.834-1.127l-0.1-2.251c-0.894 0.695-3.111 1.457-4.867 1.457-3.31 0-7.715-2.517-7.715-9.835 0-4.239 1.92-9.902 8.014-9.902 1.191 0 2.119 0.134 3.18 0.696v8.114h-4.141v1.92" fill="#154281"/></g><g transform="translate(108.09 60.729)"><path d="m0 0h9.803v-1.92h-7.75v-8.213h7.385v-1.92h-7.385v-9.14h8.113v-1.921h-10.166v23.114" fill="#154281"/></g><g transform="translate(124.84 39.536)"><path d="m0 0h2.119c5.133 0 7.95 3.841 7.95 9.636 0 3.61-0.565 9.636-8.313 9.636h-1.756v-19.272zm-2.053 21.193h3.014c7.682 0 11.293-3.742 11.293-11.226 0-6.722-3.279-11.888-10.73-11.888h-3.577v23.114" fill="#154281"/></g><g transform="translate(15.136 44.4)"><path d="m0 0c0.215 1.602 0.771 3.23 1.627 4.828-2.006-2.541-3.666-5.319-4.939-8.253 1.08 1.255 2.191 2.394 3.312 3.425" fill="#1170b8"/></g><g transform="translate(24.095 50.651)"><path d="m0 0c0.168 0.911 0.57 1.844 1.172 2.756-1.697-0.344-3.619-0.904-5.748-1.781-1.586-1.991-2.684-4.091-3.184-6.165 2.654 2.256 5.33 3.94 7.76 5.19" fill="#1170b8"/></g><g transform="translate(25.755 47.527)"><path d="m0 0c0.195-0.25 0.434-0.479 0.701-0.689 0.092 0.455 0.158 0.918 0.201 1.388-0.298-0.226-0.597-0.455-0.902-0.699" fill="#1170b8"/></g><g transform="translate(24.981 46.891)"><path d="m0 0c-2.604-2.188-5.354-5.026-7.66-8.581 0.246-0.401 0.529-0.783 0.842-1.148 3.863 1.445 6.865 4.645 8.027 8.638-0.473 0.32-0.883 0.682-1.209 1.091" fill="#1170b8"/></g><g transform="translate(16.309 36.609)"><path d="m0 0c0.291 0.063 0.576 0.141 0.859 0.223-0.142 0.181-0.304 0.353-0.433 0.543-0.149-0.246-0.283-0.513-0.426-0.766" fill="#1170b8"/></g><g transform="translate(15.591 39.622)"><path d="m0 0c-0.377 1.067-0.557 2.178-0.557 3.31-1.508-1.467-2.988-3.137-4.386-5.041-0.125-0.379-0.223-0.768-0.336-1.152 1.043-0.264 2.127-0.421 3.252-0.421 0.502 0 0.998 0.035 1.486 0.09 0.357 0.658 0.717 1.313 1.104 1.93-0.217 0.412-0.405 0.842-0.563 1.284" fill="#1170b8"/></g><g transform="translate(25.001 49.994)"><path d="m0 0c-0.031-0.506 0.033-1 0.199-1.467 0.014-0.044 0.031-0.087 0.049-0.13 0.502 0.4 0.988 0.763 1.471 1.115-0.002 0.424-0.024 0.844-0.065 1.258-0.533-0.236-1.086-0.492-1.654-0.776" fill="#1170b8"/></g><g transform="translate(25.245 51.221)"><path d="m0 0c0.432 0.206 0.85 0.393 1.262 0.571-0.078 0.438-0.178 0.869-0.297 1.291-0.434-0.618-0.76-1.244-0.965-1.862" fill="#1170b8"/></g><g transform="translate(24.257 48.193)"><path d="m0 0c-0.146 0.416-0.229 0.847-0.248 1.288-2.502-1.337-5.246-3.145-7.936-5.578-0.128-1.356 0.016-2.685 0.461-3.948 0.077-0.217 0.162-0.43 0.256-0.638 2.332 3.478 5.067 6.264 7.655 8.425-0.071 0.146-0.133 0.297-0.188 0.45v0.001" fill="#1170b8"/></g><g transform="translate(20.938 53.241)"><path d="m0 0c1.756 0.62 3.348 1.021 4.779 1.278-0.281 0.68-0.627 1.326-1.015 1.943-1.397-1.006-2.668-2.083-3.764-3.221" fill="#1170b8"/></g><g transform="translate(24.022 57.444)"><path d="m0 0c-2.404 3.154-6.189 5.197-10.459 5.197-7.271 0-13.164-5.889-13.164-13.16 0-5.791 3.746-10.7 8.943-12.459 2.375 8.078 7.502 15.367 14.68 20.422" fill="#1170b8"/></g><g transform="translate(44.046 58.878)"><path d="m0 0c-1.012 0.458-2.24 0.709-3.59 0.757-1.754-1.448-2.978-2.934-3.705-3.943 1.307 0.789 3.809 2.121 7.295 3.186" fill="#5f9fdb"/></g><g transform="translate(38.87 59.602)"><path d="m0 0c-0.893-0.066-1.82-0.21-2.758-0.433-0.412-1.271-0.506-2.509-0.508-3.361 0.59 0.884 1.662 2.314 3.266 3.794" fill="#5f9fdb"/></g><g transform="translate(46.403 56.602)"><path d="m0 0c-0.234 0.603-0.641 1.137-1.201 1.582-3.02-0.84-5.348-1.913-6.863-2.732 1.806 0.469 4.611 1.025 8.064 1.15" fill="#5f9fdb"/></g><g transform="translate(34.966 58.86)"><path d="m0 0c-0.365-0.11-0.729-0.232-1.092-0.366l0.74-1.976c0.036 0.684 0.133 1.493 0.352 2.342" fill="#5f9fdb"/></g><g transform="translate(46.737 52.222)"><path d="m0 0c2.48-0.761 5.205-1.792 7.953-3.175 0.004 0.145 0.022 0.287 0.022 0.434 0 2.055-0.485 3.993-1.325 5.726-2.045 0.3-3.98 0.418-5.761 0.426 0.068-1.1-0.248-2.264-0.889-3.411" fill="#5f9fdb"/></g><g transform="translate(45.79 52.503)"><path d="m0 0c0.625 1.056 0.928 2.12 0.842 3.112-4.223-0.129-7.459-0.928-9.061-1.412 1.672-0.204 4.649-0.674 8.219-1.7" fill="#5f9fdb"/></g><g transform="translate(32.942 58.127)"><path d="m0 0c-0.59-0.25-1.158-0.522-1.699-0.814 1.256-0.762 2.219-1.573 2.795-2.109l-1.096 2.923" fill="#5f9fdb"/></g><g transform="translate(45.204 51.635)"><path d="m0 0c-4.086 1.148-7.332 1.547-8.584 1.668 0.971-0.802 2.83-2.413 5.143-4.773 1.427 0.936 2.601 2.003 3.441 3.105" fill="#5f9fdb"/></g><g transform="translate(54.616 47.961)"><path d="m0 0c-2.916 1.504-5.818 2.601-8.43 3.388-0.892-1.264-2.166-2.483-3.724-3.54 2.183-2.282 4.707-5.18 7.244-8.646 2.67 2.114 4.5 5.237 4.91 8.798" fill="#5f9fdb"/></g><g transform="translate(35.526 52.822)"><path d="m0 0c-0.092-0.952-0.279-3.389-0.236-7.016 0.867 0.194 1.744 0.454 2.615 0.782 1.068 0.4 2.07 0.875 2.984 1.404-2.59 2.627-4.574 4.278-5.302 4.863-0.02-0.011-0.04-0.022-0.061-0.033" fill="#5f9fdb"/></g><g transform="translate(47.384 56.839)"><path d="m0 0c0.023-0.07 0.047-0.141 0.068-0.212 0.123 0.001 0.248 0.001 0.373 0.001 1.551 0 3.219-0.102 4.965-0.326-0.66 1.087-1.472 2.068-2.41 2.918-1.435-0.183-2.783-0.434-4.023-0.735 0.465-0.483 0.81-1.036 1.027-1.646" fill="#5f9fdb"/></g><g transform="translate(34.294 45.611)"><path d="m0 0c-0.045 3.156 0.086 5.453 0.186 6.703-0.854-1.032-2.688-3.389-4.645-6.797 1.346-0.203 2.871-0.17 4.459 0.094" fill="#5f9fdb"/></g><g transform="translate(34.763 53.807)"><path d="m0 0c-0.213-0.08-0.373-0.174-0.486-0.259l0.07-0.065c0.129 0.014 0.289 0.049 0.471 0.116 0.277 0.104 0.465 0.232 0.576 0.334-0.168 0.013-0.364-0.026-0.631-0.126" fill="#5f9fdb"/></g><g transform="translate(40.077 60.638)"><path d="m0 0c0.844 0.672 1.814 1.325 2.889 1.924-0.467 0.05-0.938 0.079-1.416 0.079-1.069-0.079-2.155-0.22-3.254-0.422-0.153-0.039-0.307-0.073-0.457-0.118-0.543-0.555-0.961-1.173-1.276-1.812 1.207 0.24 2.387 0.356 3.514 0.349" fill="#5f9fdb"/></g><g transform="translate(44.534 59.755)"><path d="m0 0c0.314-0.146 0.607-0.309 0.877-0.488 1.207 0.319 2.523 0.593 3.926 0.807-1.401 1.03-3.006 1.788-4.75 2.201-1.09-0.52-2.076-1.111-2.951-1.734 1.07-0.131 2.052-0.393 2.898-0.786" fill="#5f9fdb"/></g><g transform="translate(31.356 52.489)"><path d="m0 0c-0.789-0.227-1.732-0.531-2.789-0.933-0.045-0.277-0.092-0.554-0.117-0.837 1.09 0.722 2.082 1.314 2.906 1.77" fill="#5f9fdb"/></g><g transform="translate(33.223 54.589)"><path d="m0 0c-0.588 0.529-1.543 1.296-2.742 1.997-0.344-0.534-0.649-1.094-0.914-1.678 0.097 0.002 0.205 0.008 0.299 0.008 1.513 0 2.646-0.172 3.357-0.327" fill="#5f9fdb"/></g><g transform="translate(38.257 45.651)"><path d="m0 0c-0.978-0.368-1.971-0.655-2.949-0.862 0.049-2.049 0.174-4.434 0.42-7.098 1.758-0.87 3.728-1.371 5.822-1.371 2.723 0 5.254 0.827 7.354 2.244-2.565 3.505-5.114 6.42-7.301 8.695-1.02-0.612-2.143-1.157-3.346-1.608" fill="#5f9fdb"/></g><g transform="translate(28.388 49.475)"><path d="m0 0c0-1.247 0.186-2.448 0.51-3.589 1.699 2.972 3.314 5.183 4.316 6.452-1.037-0.513-2.779-1.459-4.826-2.863" fill="#5f9fdb"/></g><g transform="translate(32.581 59.094)"><path d="m0 0c-0.027-0.024-0.055-0.047-0.08-0.072 0.031 0.013 0.06 0.029 0.092 0.042l-0.012 0.03" fill="#5f9fdb"/></g><g transform="translate(32.186 53.745)"><path d="m0 0c-0.754 0.104-1.771 0.182-3.029 0.137-0.137-0.385-0.256-0.778-0.356-1.179 1.371 0.496 2.535 0.831 3.385 1.042" fill="#5f9fdb"/></g><g transform="translate(35.333 60.003)"><path d="m0 0c0.188 0.482 0.437 0.96 0.728 1.428-0.959-0.441-1.857-0.99-2.673-1.637l0.134-0.363c0.602 0.22 1.207 0.411 1.811 0.572" fill="#5f9fdb"/></g><g transform="translate(29.337 44.592)"><path d="m0 0c1.057-2.639 2.943-4.846 5.338-6.318-0.203 2.349-0.315 4.474-0.359 6.332-1.774-0.279-3.479-0.284-4.979-0.014" fill="#5f9fdb"/></g><g transform="translate(56.639 46.854)"><path d="m0 0c0.002-0.007 0.002-0.015 0.004-0.023 0.004 0.006 0.006 0.01 0.01 0.016l-0.014 0.007" fill="#a4ccdb"/></g><g transform="translate(58.725 55.061)"><path d="m0 0c2.184-0.645 4.439-1.524 6.727-2.7 0.23-0.098 3.81-1.658 7.652-4.98-0.132 0.796-0.332 1.581-0.603 2.351-0.818 2.33-2.737 4.749-5.401 6.813l0.006 0.006c-0.904 0.677-1.846 1.312-2.824 1.902-1.262 0.293-2.485 0.506-3.678 0.673-0.902-0.835-1.684-1.793-2.322-2.85 0.082-0.193 0.173-0.381 0.244-0.58 0.074-0.21 0.14-0.422 0.199-0.635" fill="#a4ccdb"/></g><g transform="translate(73.275 45.855)"><path d="m0 0c-4.104 3.796-8.184 5.574-8.249 5.601-2.056 1.058-4.088 1.871-6.058 2.485 0.332-2.161-0.055-4.442-1.045-6.69 2.037-1.25 4.039-2.718 5.916-4.443 0.049-0.041 2.652-2.297 5.641-6.487 0.019 0 0.039-0.003 0.058-0.003 0.522 0 1.035 0.039 1.541 0.097 1.588 3.147 2.372 6.362 2.196 9.44" fill="#a4ccdb"/></g><g transform="translate(79.433 41.347)"><path d="m0 0c0.045-0.128 0.08-0.257 0.123-0.386 1.955 2.297 3.141 5.268 3.141 8.52 0 7.271-5.893 13.16-13.159 13.16-2.6 0-5.016-0.762-7.055-2.061 7.991-4.042 13.989-10.827 16.95-19.233" fill="#a4ccdb"/></g><g transform="translate(72.249 36.601)"><path d="m0 0c2.307 0.483 4.383 1.58 6.072 3.1-1.187 1.984-2.588 3.708-4.031 5.17-0.027-2.72-0.742-5.518-2.041-8.27" fill="#a4ccdb"/></g><g transform="translate(74.236 46.357)"><path d="m0 0c1.387-1.317 2.769-2.865 4.004-4.657-1.213 3.223-2.893 6.193-4.973 8.837 0.063-0.156 0.123-0.314 0.178-0.473 0.426-1.205 0.685-2.445 0.791-3.707" fill="#a4ccdb"/></g><g transform="translate(63.177 42.06)"><path d="m0 0c-1.805 1.658-3.728 3.074-5.687 4.284-0.151-0.291-0.317-0.581-0.487-0.87 1.565-4.902 5.918-8.556 11.201-9.089-2.707 3.663-4.976 5.63-5.027 5.675" fill="#a4ccdb"/></g><g transform="translate(56.45 48.107)"><path d="m0 0c0.209-0.117 0.42-0.229 0.629-0.352 0.943 2.202 1.258 4.423 0.816 6.503-0.187 0.053-0.371 0.095-0.558 0.144-0.614-1.522-0.959-3.18-0.959-4.922 0-0.463 0.025-0.922 0.072-1.373" fill="#a4ccdb"/></g><g transform="translate(16.763 49.228)"><path d="m0 0c-0.856-1.597-1.412-3.225-1.627-4.828-1.121-1.031-2.232-2.169-3.313-3.424 1.274 2.933 2.934 5.712 4.94 8.252zm2.756 2.398c2.129 0.877 4.051 1.437 5.748 1.781-0.602-0.912-1.004-1.845-1.172-2.756-2.43-1.25-5.106-2.934-7.76-5.19 0.5 2.074 1.598 4.174 3.184 6.165zm-2.729-12.309c-0.093 0.208-0.179 0.421-0.256 0.638-0.445 1.264-0.589 2.592-0.461 3.948 2.69 2.433 5.434 4.241 7.936 5.578 0.02-0.44 0.102-0.872 0.248-1.288v-0.001c0.055-0.153 0.117-0.303 0.188-0.45-2.588-2.161-5.323-4.947-7.655-8.425zm-6.142-1.426c1.398 1.904 2.879 3.574 4.386 5.041 0-1.132 0.18-2.243 0.557-3.31 0.158-0.442 0.346-0.872 0.563-1.284-0.387-0.617-0.747-1.272-1.104-1.93 0.426 0.048 0.846 0.114 1.26 0.201 0.142 0.253 0.277 0.52 0.426 0.766 0.128-0.189 0.291-0.361 0.433-0.543 0.338 0.096 0.668 0.209 0.994 0.33-0.312 0.365-0.595 0.747-0.841 1.149 2.306 3.554 5.056 6.392 7.66 8.581 0.326-0.41 0.736-0.772 1.209-1.091 0.099 0.342 0.193 0.685 0.265 1.037-0.267 0.211-0.505 0.439-0.701 0.689 0.305 0.245 0.604 0.473 0.902 0.7 0.04 0.413 0.065 0.83 0.065 1.253 0 0.011-0.002 0.021-0.002 0.031-0.482-0.351-0.969-0.714-1.471-1.114-0.017 0.042-0.035 0.085-0.048 0.129-0.167 0.468-0.231 0.961-0.2 1.468 0.569 0.284 1.121 0.54 1.654 0.776-0.033 0.346-0.089 0.684-0.148 1.022-0.412-0.179-0.83-0.366-1.262-0.571 0.205 0.617 0.532 1.243 0.965 1.862-0.138 0.49-0.299 0.971-0.492 1.437-1.432-0.258-3.023-0.659-4.779-1.279 1.095 1.138 2.367 2.215 3.763 3.221-0.21 0.339-0.439 0.665-0.679 0.982-7.178-5.055-12.305-12.344-14.68-20.422 0.318-0.108 0.643-0.2 0.969-0.283 0.113 0.384 0.211 0.773 0.336 1.152" fill="#fff"/></g><g transform="translate(36.62 53.303)"><path d="m0 0c1.252-0.121 4.498-0.52 8.584-1.668-0.84-1.102-2.014-2.169-3.441-3.105-2.313 2.36-4.172 3.971-5.143 4.773zm1.285-6.715c-0.871-0.327-1.748-0.588-2.615-0.781-0.043 3.626 0.144 6.064 0.236 7.016 0.022 0.01 0.041 0.022 0.061 0.032 0.728-0.584 2.713-2.235 5.303-4.862-0.915-0.53-1.916-1.004-2.985-1.405zm-3.611-0.976c-1.588-0.264-3.113-0.297-4.459-0.094 1.957 3.408 3.791 5.765 4.644 6.797-0.099-1.251-0.23-3.547-0.185-6.703zm-3.051 11.702c0.541 0.291 1.109 0.564 1.699 0.814l1.096-2.923c-0.576 0.536-1.539 1.347-2.795 2.109zm3.723 1.546c-0.219-0.849-0.317-1.658-0.352-2.342l-0.74 1.976c0.363 0.134 0.726 0.256 1.092 0.366zm1.146 0.31c0.938 0.222 1.865 0.367 2.758 0.433-1.604-1.48-2.676-2.91-3.266-3.794 0.002 0.852 0.096 2.09 0.508 3.361zm4.344 0.466c1.35-0.048 2.578-0.299 3.59-0.757-3.487-1.065-5.988-2.397-7.295-3.186 0.726 1.008 1.951 2.495 3.705 3.943zm4.746-1.452c0.561-0.444 0.967-0.979 1.201-1.581-3.453-0.125-6.258-0.681-8.064-1.151 1.515 0.82 3.844 1.893 6.863 2.732zm0.588-5.681c-3.57 1.027-6.547 1.496-8.219 1.7 1.602 0.484 4.838 1.283 9.061 1.413 0.086-0.993-0.217-2.057-0.842-3.113zm0.396-1.154c2.612-0.787 5.514-1.884 8.43-3.388 0.041 0.358 0.061 0.72 0.074 1.086-2.748 1.382-5.472 2.414-7.953 3.175 0.641 1.147 0.957 2.31 0.889 3.411 1.781-0.008 3.717-0.126 5.762-0.426-0.184 0.375-0.381 0.74-0.598 1.095-1.746 0.224-3.414 0.326-4.965 0.326-0.125 0-0.25 0-0.373-0.001-0.022 0.071-0.045 0.142-0.068 0.212-0.217 0.61-0.563 1.163-1.028 1.646 1.241 0.301 2.588 0.552 4.024 0.735-0.332 0.302-0.68 0.587-1.043 0.854-1.403-0.213-2.719-0.488-3.926-0.807-0.27 0.179-0.563 0.342-0.877 0.488-0.846 0.394-1.828 0.655-2.898 0.786 0.875 0.623 1.861 1.214 2.951 1.734-0.529 0.126-1.069 0.229-1.621 0.288-1.075-0.599-2.045-1.252-2.889-1.925-1.127 0.007-2.307-0.108-3.514-0.349 0.315 0.639 0.733 1.257 1.276 1.813-0.614-0.18-1.205-0.407-1.778-0.671-0.291-0.467-0.541-0.946-0.728-1.428-0.604-0.16-1.209-0.351-1.811-0.572l-0.134 0.363c-0.28-0.222-0.547-0.456-0.807-0.699l0.012-0.031c-0.032-0.013-0.061-0.029-0.092-0.042-0.768-0.727-1.445-1.543-2.02-2.436 1.2-0.701 2.155-1.468 2.743-1.997-0.711 0.155-1.844 0.327-3.358 0.327-0.094 0-0.201-0.006-0.299-0.008-0.15-0.334-0.285-0.677-0.41-1.026 1.258 0.045 2.276-0.033 3.029-0.137-0.849-0.211-2.013-0.546-3.384-1.041-0.096-0.377-0.174-0.758-0.235-1.147 1.057 0.402 2 0.706 2.789 0.933-0.824-0.457-1.816-1.049-2.906-1.77-0.039-0.409-0.062-0.821-0.062-1.239v-0.006c2.046 1.405 3.789 2.35 4.826 2.863-1.002-1.269-2.617-3.479-4.317-6.452 0.125-0.441 0.27-0.874 0.44-1.294 1.5-0.27 3.205-0.265 4.978 0.014 0.045-1.858 0.157-3.983 0.36-6.332 0.341-0.209 0.691-0.405 1.052-0.582-0.246 2.664-0.371 5.048-0.419 7.097 0.978 0.207 1.97 0.494 2.949 0.863 1.203 0.451 2.326 0.996 3.345 1.608 2.188-2.275 4.737-5.19 7.301-8.695 0.277 0.187 0.541 0.391 0.803 0.598-2.537 3.466-5.061 6.365-7.244 8.646 1.558 1.057 2.832 2.276 3.724 3.54" fill="#fff"/></g><g transform="translate(41.55 62.641)"><path d="m0 0c-1.125 0-2.211-0.156-3.254-0.422 1.1 0.202 2.186 0.343 3.254 0.422" fill="#fff"/></g><g transform="translate(78.24 41.7)"><path d="m0 0c-1.234 1.792-2.617 3.34-4.004 4.657-0.105 1.262-0.365 2.502-0.791 3.707-0.055 0.159-0.115 0.317-0.178 0.473 2.08-2.644 3.76-5.613 4.973-8.837zm-13.957 16.753c0.978-0.589 1.919-1.225 2.824-1.902l-0.006-0.005c2.664-2.065 4.582-4.484 5.401-6.814 0.271-0.769 0.47-1.555 0.603-2.35-3.842 3.321-7.422 4.881-7.653 4.979-2.287 1.176-4.543 2.055-6.726 2.7-0.059 0.214-0.125 0.425-0.199 0.635-0.071 0.199-0.162 0.387-0.244 0.58-0.362-0.597-0.682-1.22-0.946-1.874 0.188-0.049 0.371-0.091 0.559-0.143 0.441-2.081 0.127-4.302-0.817-6.503-0.209 0.123-0.42 0.234-0.628 0.351 0.042-0.424 0.107-0.842 0.189-1.253l0.014-0.007c-0.004-0.005-0.006-0.009-0.01-0.015 0.096-0.463 0.217-0.914 0.359-1.358 0.17 0.29 0.336 0.58 0.487 0.871 1.959-1.211 3.882-2.627 5.687-4.285 0.051-0.045 2.32-2.011 5.027-5.675 0.42-0.042 0.846-0.062 1.276-0.064-2.988 4.191-5.592 6.446-5.641 6.487-1.877 1.725-3.879 3.193-5.916 4.444 0.99 2.247 1.377 4.529 1.045 6.69 1.971-0.615 4.002-1.428 6.059-2.486 0.064-0.027 4.144-1.805 8.248-5.601 0.176-3.078-0.607-6.293-2.196-9.439 0.395 0.047 0.788 0.105 1.171 0.185 1.299 2.752 2.013 5.55 2.041 8.27 1.443-1.462 2.844-3.186 4.031-5.17 0.438 0.395 0.854 0.811 1.234 1.26-0.043 0.129-0.078 0.257-0.123 0.385-2.961 8.406-8.959 15.192-16.949 19.233-0.672-0.427-1.299-0.914-1.879-1.452 1.193-0.167 2.416-0.381 3.678-0.674" fill="#fff"/></g></g></svg>