<svg xmlns="http://www.w3.org/2000/svg" viewBox="0 0 226 33">
    <path d="M174.46 2.406h3.976l6.707 23.561h.083l7.082-23.561h3.644l-9.069 28.904h-3.644l-8.78-28.904m25.671 28.904h3.644v-28.904h-3.644v28.904zm8.86-3.438l11.76-22.32h-11.39v-3.146h15.735v3.146l-12.132 22.61h12.38v3.147h-16.36v-3.438" fill="#5f9fdb"/>
    <path d="M120.41 15.76h7.741v14.239c-2.07 1.119-4.306 1.575-6.665 1.575-10.141 0-12.624-9.521-12.624-15.026 0-7.41 4.429-14.448 12.541-14.448 2.316 0 5.174.911 6.043 1.409l-.125 2.814c-1.117-.869-3.889-1.821-6.084-1.821-4.138 0-9.644 3.146-9.644 12.294 0 5.299 2.4 12.378 10.018 12.378 1.489 0 2.649-.168 3.975-.87v-10.144h-5.176v-2.4m14.2-13.369h12.254v2.4h-9.688v10.266h9.231v2.4h-9.231v11.425h10.141v2.401h-12.708v-28.892m20.941 26.491h2.649c6.416 0 9.938-4.801 9.938-12.045 0-4.513-.706-12.045-10.391-12.045h-2.195v24.09zm-2.57-26.491h3.768c9.602 0 14.116 4.678 14.116 14.032 0 8.402-4.099 14.86-13.412 14.86h-4.471v-28.892" fill="#154281"/>
    <path d="M18.421 22.802c.269-2.002.964-4.037 2.034-6.035-2.507 3.176-4.582 6.649-6.174 10.316 1.35-1.569 2.739-2.993 4.14-4.281m11.198-7.814c.21-1.139.713-2.305 1.465-3.445-2.121.43-4.524 1.13-7.185 2.226-1.982 2.489-3.355 5.114-3.98 7.706 3.317-2.82 6.662-4.925 9.7-6.487m2.075 3.905c.244.313.542.599.876.861.115-.569.198-1.147.251-1.735-.372.282-.746.569-1.127.874m-.967.795c-3.255 2.735-6.692 6.282-9.575 10.726.307.501.661.979 1.052 1.435 4.829-1.806 8.581-5.806 10.034-10.798-.591-.4-1.104-.853-1.511-1.364m-10.84 12.854c.364-.079.72-.176 1.074-.279-.177-.226-.38-.441-.541-.679-.186.307-.354.641-.532.958m-.899-3.767c-.471-1.334-.696-2.723-.696-4.138-1.885 1.834-3.735 3.921-5.482 6.301-.156.474-.279.96-.42 1.44 1.304.33 2.659.526 4.065.526.627 0 1.248-.044 1.857-.113.446-.823.896-1.641 1.38-2.413-.271-.515-.506-1.052-.704-1.605m11.763-12.962c-.039.632.041 1.25.249 1.834l.061.163c.627-.5 1.235-.954 1.839-1.394-.003-.53-.03-1.055-.081-1.573-.666.295-1.357.615-2.067.97m.304-1.534c.54-.258 1.063-.491 1.577-.714-.098-.547-.223-1.086-.371-1.614-.542.772-.95 1.555-1.206 2.328m-1.235 3.785c-.182-.52-.286-1.059-.31-1.61-3.127 1.671-6.558 3.931-9.92 6.973-.16 1.695.02 3.356.576 4.935.096.271.203.537.32.797 2.915-4.348 6.334-7.83 9.569-10.531-.089-.182-.166-.371-.235-.563v-.001m-4.149-6.31c2.195-.775 4.185-1.276 5.974-1.597-.351-.85-.784-1.657-1.269-2.429-1.746 1.258-3.335 2.604-4.705 4.026m3.855-5.254c-3.005-3.942-7.736-6.496-13.074-6.496-9.089 0-16.455 7.361-16.455 16.45 0 7.239 4.683 13.375 11.179 15.574 2.969-10.098 9.377-19.209 18.35-25.528" fill="#1170b8"/>
    <path d="M54.558 4.705c-1.265-.573-2.8-.886-4.487-.946-2.192 1.81-3.723 3.667-4.631 4.929 1.634-.986 4.761-2.651 9.119-3.982m-6.471-.906c-1.116.083-2.275.263-3.447.541-.515 1.589-.632 3.136-.635 4.201.738-1.105 2.078-2.893 4.082-4.742m9.416 3.75c-.292-.754-.801-1.421-1.501-1.978-3.775 1.05-6.685 2.391-8.579 3.415 2.257-.586 5.764-1.281 10.08-1.438m-14.296-2.822c-.456.138-.911.29-1.365.458l.925 2.47c.045-.855.166-1.866.44-2.928m14.714 8.297c3.1.951 6.506 2.24 9.941 3.969l.028-.542c0-2.569-.606-4.991-1.656-7.157-2.556-.375-4.975-.522-7.201-.532.085 1.375-.31 2.83-1.111 4.264m-1.185-.353c.781-1.32 1.16-2.65 1.052-3.89-5.279.161-9.324 1.16-11.326 1.765 2.09.255 5.811.843 10.274 2.125m-16.06-7.03c-.738.313-1.448.652-2.124 1.018 1.57.953 2.774 1.966 3.494 2.636l-1.37-3.654m15.328 8.115c-5.107-1.435-9.165-1.934-10.73-2.085 1.214 1.002 3.538 3.016 6.429 5.966 1.784-1.17 3.251-2.504 4.301-3.881m11.765 4.593c-3.645-1.88-7.272-3.251-10.538-4.235-1.115 1.58-2.708 3.104-4.655 4.425 2.729 2.853 5.884 6.475 9.055 10.808 3.337-2.643 5.625-6.546 6.138-10.998m-23.863-6.077c-.115 1.19-.349 4.236-.295 8.77 1.084-.242 2.18-.568 3.269-.978 1.335-.5 2.587-1.094 3.73-1.755-3.237-3.284-5.718-5.348-6.628-6.079l-.076.041m14.823-5.02l.085.265.466-.001c1.939 0 4.024.128 6.206.407-.825-1.359-1.84-2.585-3.013-3.647-1.794.229-3.479.542-5.029.919.581.604 1.012 1.295 1.284 2.058m-16.362 14.034c-.056-3.945.107-6.816.233-8.379-1.067 1.29-3.36 4.236-5.806 8.496 1.683.254 3.589.212 5.574-.117m7.228-18.783c1.055-.84 2.268-1.656 3.611-2.405-.584-.063-1.173-.099-1.77-.099-1.336.099-2.694.275-4.067.527l-.571.147c-.679.694-1.201 1.466-1.595 2.265 1.509-.3 2.984-.445 4.393-.436m5.57 1.104c.393.182.759.386 1.096.61 1.509-.399 3.154-.741 4.907-1.009-1.751-1.288-3.757-2.235-5.938-2.751-1.363.65-2.595 1.389-3.689 2.167 1.337.164 2.565.491 3.623.983m-16.471 9.083c-.986.284-2.165.664-3.486 1.166-.056.346-.115.693-.146 1.046 1.363-.902 2.603-1.643 3.632-2.212m2.333-2.625c-.735-.661-1.929-1.62-3.428-2.496-.43.667-.811 1.367-1.143 2.098l.374-.01c1.891 0 3.308.215 4.196.409m6.294 11.171c-1.222.46-2.464.819-3.686 1.077.061 2.561.217 5.543.525 8.873 2.197 1.087 4.66 1.714 7.277 1.714 3.404 0 6.567-1.034 9.193-2.805-3.206-4.381-6.393-8.025-9.126-10.869-1.275.765-2.679 1.446-4.183 2.01m-12.336-4.78c0 1.559.233 3.06.637 4.486 2.124-3.715 4.143-6.479 5.395-8.065-1.296.641-3.474 1.824-6.032 3.579m5.241-12.024l-.1.09.115-.052-.015-.037m-.494 6.686c-.943-.13-2.214-.228-3.786-.171-.171.481-.32.973-.445 1.474 1.714-.62 3.169-1.039 4.231-1.302m3.934-7.824c.235-.603.546-1.2.91-1.785-1.199.551-2.321 1.238-3.341 2.046l.168.454c.752-.275 1.509-.514 2.264-.715m-7.496 19.264c1.321 3.299 3.679 6.058 6.673 7.897-.254-2.936-.394-5.593-.449-7.915-2.217.349-4.349.355-6.224.018" fill="#5f9fdb"/>
    <path d="M72.907 9.476c2.73.806 5.549 1.905 8.409 3.375.287.122 4.763 2.072 9.565 6.225-.165-.995-.415-1.976-.754-2.939-1.022-2.913-3.421-5.936-6.751-8.516l.007-.007c-1.13-.846-2.308-1.64-3.53-2.377-1.577-.366-3.106-.632-4.598-.841-1.127 1.044-2.105 2.241-2.902 3.563.102.241.216.476.305.725.092.263.175.527.249.794m18.187 11.505c-5.13-4.745-10.23-6.968-10.311-7.001-2.57-1.323-5.11-2.339-7.572-3.106.415 2.701-.069 5.553-1.306 8.363 2.546 1.563 5.049 3.397 7.395 5.554.061.051 3.315 2.871 7.051 8.109l.072.004c.652 0 1.294-.049 1.926-.121 1.985-3.934 2.965-7.952 2.745-11.8m7.698 5.633l.154.482c2.444-2.871 3.926-6.585 3.926-10.65 0-9.089-7.366-16.45-16.449-16.45-3.25 0-6.27.953-8.819 2.576 9.989 5.053 17.486 13.534 21.188 24.041m-8.98 5.934c2.884-.604 5.479-1.975 7.59-3.875-1.484-2.48-3.235-4.635-5.039-6.463-.034 3.4-.927 6.897-2.551 10.338m2.484-12.195c1.734 1.646 3.461 3.581 5.005 5.821-1.516-4.029-3.616-7.741-6.216-11.046l.223.591c.532 1.506.856 3.056.989 4.634m-13.825 5.371c-2.256-2.072-4.66-3.842-7.109-5.355-.189.364-.396.726-.609 1.087 1.956 6.128 7.397 10.695 14.001 11.361-3.384-4.579-6.22-7.037-6.284-7.094m-8.408-7.558l.786.44c1.179-2.752 1.573-5.529 1.02-8.129l-.698-.18c-.767 1.903-1.199 3.975-1.199 6.152 0 .579.031 1.153.09 1.716" fill="#a4ccdb"/>
</svg>
