<?xml version="1.0" encoding="utf-8"?>
<!-- Generator: Adobe Illustrator 15.1.0, SVG Export Plug-In . SVG Version: 6.00 Build 0)  -->
<!DOCTYPE svg PUBLIC "-//W3C//DTD SVG 1.1//EN" "http://www.w3.org/Graphics/SVG/1.1/DTD/svg11.dtd">
<svg version="1.1" id="Ebene_1" xmlns="http://www.w3.org/2000/svg" xmlns:xlink="http://www.w3.org/1999/xlink" x="0px" y="0px"
	 width="210.557px" height="63.25px" viewBox="0 0 210.557 63.25" enable-background="new 0 0 210.557 63.25" xml:space="preserve">
<path fill="#FFFFFF" d="M154.825,20.278h3.181l5.366,18.849h0.066l5.665-18.849h2.915l-7.255,23.123h-2.915L154.825,20.278z"/>
<path fill="#FFFFFF" d="M175.363,20.278h2.915v23.123h-2.915V20.278z"/>
<path fill="#FFFFFF" d="M182.451,40.651l9.408-17.855h-9.109v-2.518h12.588v2.518l-9.706,18.087h9.904v2.518h-13.085V40.651z"/>
<path fill="#FFFFFF" d="M111.586,30.961h6.193v11.391c-1.656,0.895-3.445,1.26-5.332,1.26c-8.113,0-10.1-7.617-10.1-12.021
	c0-5.928,3.543-11.558,10.033-11.558c1.854,0,4.139,0.729,4.834,1.126l-0.1,2.251c-0.895-0.695-3.111-1.457-4.867-1.457
	c-3.311,0-7.715,2.517-7.715,9.835c0,4.239,1.92,9.902,8.014,9.902c1.191,0,2.119-0.134,3.18-0.696v-8.113h-4.141V30.961z"/>
<path fill="#FFFFFF" d="M122.945,20.266h9.803v1.92h-7.75v8.212h7.385v1.92h-7.385v9.14h8.113v1.921h-10.166V20.266z"/>
<path fill="#FFFFFF" d="M137.648,20.266h3.014c7.682,0,11.293,3.742,11.293,11.226c0,6.722-3.279,11.888-10.73,11.888h-3.576V20.266
	z M139.701,41.459h2.119c5.133,0,7.949-3.841,7.949-9.636c0-3.609-0.564-9.636-8.312-9.636h-1.756V41.459z"/>
<path fill="#FFFFFF" d="M52.734,18.85c-0.014,0.014-0.023,0.03-0.035,0.044c0.15-0.044,0.305-0.079,0.457-0.118
	C53.015,18.802,52.875,18.822,52.734,18.85z"/>
<path fill="#FFFFFF" d="M58.089,18.274c-0.553,0.007-1.115,0.038-1.68,0.08c0.479,0,0.949,0.029,1.416,0.079
	C57.917,18.381,57.996,18.324,58.089,18.274z"/>
<path fill="#FFFFFF" d="M29.996,36.595c0.215-1.603,0.771-3.23,1.627-4.828c-2.006,2.541-3.666,5.319-4.939,8.252
	C27.763,38.765,28.875,37.626,29.996,36.595z"/>
<path fill="#FFFFFF" d="M38.955,30.344c0.168-0.911,0.57-1.844,1.172-2.756c-1.697,0.344-3.619,0.904-5.748,1.781
	c-1.586,1.991-2.684,4.091-3.184,6.165C33.849,33.278,36.525,31.594,38.955,30.344z"/>
<path fill="#FFFFFF" d="M40.615,33.468c0.195,0.25,0.434,0.479,0.701,0.689c0.092-0.455,0.158-0.918,0.201-1.389
	C41.218,32.995,40.919,33.224,40.615,33.468z"/>
<path fill="#FFFFFF" d="M39.841,34.104c-2.604,2.188-5.354,5.026-7.66,8.581c0.246,0.401,0.529,0.783,0.842,1.148
	c3.863-1.445,6.865-4.646,8.027-8.639C40.578,34.875,40.167,34.513,39.841,34.104z"/>
<path fill="#FFFFFF" d="M31.169,44.386c0.291-0.062,0.576-0.141,0.859-0.223c-0.143-0.182-0.305-0.354-0.434-0.543
	C31.447,43.866,31.312,44.133,31.169,44.386z"/>
<path fill="#FFFFFF" d="M30.451,41.373c-0.377-1.067-0.557-2.178-0.557-3.31c-1.508,1.467-2.988,3.137-4.387,5.041
	c-0.125,0.379-0.223,0.768-0.336,1.151c1.043,0.265,2.127,0.421,3.252,0.421c0.502,0,0.998-0.035,1.486-0.09
	c0.357-0.658,0.717-1.312,1.104-1.93C30.796,42.245,30.609,41.815,30.451,41.373z"/>
<path fill="#FFFFFF" d="M39.861,31.001c-0.031,0.506,0.033,1,0.199,1.467c0.014,0.044,0.031,0.087,0.049,0.13
	c0.502-0.4,0.988-0.763,1.471-1.115c-0.002-0.425-0.023-0.844-0.064-1.259C40.982,30.461,40.429,30.717,39.861,31.001z"/>
<path fill="#FFFFFF" d="M40.105,29.774c0.432-0.206,0.85-0.393,1.262-0.571c-0.078-0.438-0.178-0.869-0.297-1.291
	C40.636,28.531,40.31,29.157,40.105,29.774z"/>
<path fill="#FFFFFF" d="M39.117,32.802c-0.146-0.416-0.229-0.847-0.248-1.288c-2.502,1.337-5.246,3.146-7.936,5.578
	c-0.129,1.356,0.016,2.685,0.461,3.948c0.076,0.217,0.162,0.43,0.256,0.638c2.332-3.478,5.066-6.264,7.654-8.425
	C39.234,33.106,39.171,32.956,39.117,32.802L39.117,32.802z"/>
<path fill="#FFFFFF" d="M35.798,27.754c1.756-0.62,3.348-1.021,4.779-1.278c-0.281-0.68-0.627-1.326-1.016-1.943
	C38.166,25.539,36.894,26.616,35.798,27.754z"/>
<path fill="#FFFFFF" d="M58.906,22.117c-1.012-0.458-2.24-0.709-3.59-0.757c-1.754,1.448-2.979,2.935-3.705,3.943
	C52.917,24.514,55.419,23.182,58.906,22.117z"/>
<path fill="#FFFFFF" d="M53.73,21.393c-0.893,0.066-1.82,0.21-2.758,0.433c-0.412,1.271-0.506,2.509-0.508,3.361
	C51.054,24.303,52.126,22.873,53.73,21.393z"/>
<path fill="#FFFFFF" d="M61.263,24.393c-0.234-0.603-0.641-1.137-1.201-1.582c-3.02,0.839-5.348,1.913-6.863,2.732
	C55.005,25.074,57.81,24.518,61.263,24.393z"/>
<path fill="#FFFFFF" d="M49.826,22.135c-0.365,0.11-0.729,0.232-1.092,0.366l0.74,1.977C49.509,23.793,49.607,22.984,49.826,22.135z
	"/>
<path fill="#FFFFFF" d="M60.65,28.492c0.625-1.056,0.928-2.12,0.842-3.112c-4.223,0.129-7.459,0.929-9.061,1.413
	C54.103,26.997,57.08,27.466,60.65,28.492z"/>
<path fill="#FFFFFF" d="M47.802,22.868c-0.59,0.25-1.158,0.522-1.699,0.814c1.256,0.762,2.219,1.573,2.795,2.109L47.802,22.868z"/>
<path fill="#FFFFFF" d="M60.064,29.36c-4.086-1.148-7.332-1.547-8.584-1.668c0.971,0.802,2.83,2.413,5.143,4.773
	C58.05,31.529,59.224,30.462,60.064,29.36z"/>
<path fill="#FFFFFF" d="M69.476,33.034c-2.916-1.504-5.818-2.601-8.43-3.388c-0.893,1.265-2.166,2.483-3.725,3.541
	c2.184,2.281,4.707,5.18,7.244,8.646C67.236,39.718,69.066,36.595,69.476,33.034z"/>
<path fill="#FFFFFF" d="M50.386,28.173c-0.092,0.952-0.279,3.389-0.236,7.016c0.867-0.193,1.744-0.454,2.615-0.781
	c1.068-0.4,2.07-0.875,2.984-1.404c-2.59-2.627-4.574-4.278-5.303-4.863C50.427,28.151,50.408,28.162,50.386,28.173z"/>
<path fill="#FFFFFF" d="M62.244,24.156c0.023,0.07,0.047,0.141,0.068,0.212c0.123-0.001,0.248-0.001,0.373-0.001
	c1.551,0,3.219,0.102,4.965,0.327c-0.66-1.087-1.473-2.068-2.41-2.918c-1.436,0.183-2.783,0.434-4.023,0.735
	C61.681,22.994,62.027,23.546,62.244,24.156z"/>
<path fill="#FFFFFF" d="M49.154,35.384c-0.045-3.156,0.086-5.453,0.186-6.703c-0.854,1.032-2.688,3.389-4.645,6.797
	C46.041,35.681,47.566,35.647,49.154,35.384z"/>
<path fill="#FFFFFF" d="M49.623,27.188c-0.213,0.08-0.373,0.174-0.486,0.259l0.07,0.065c0.129-0.014,0.289-0.048,0.471-0.116
	c0.277-0.104,0.465-0.232,0.576-0.334C50.085,27.049,49.89,27.088,49.623,27.188z"/>
<path fill="#FFFFFF" d="M54.937,20.357c0.844-0.672,1.814-1.325,2.889-1.924c-0.467-0.05-0.938-0.079-1.416-0.079
	c-1.068,0.079-2.154,0.22-3.254,0.422c-0.152,0.039-0.307,0.073-0.457,0.118c-0.543,0.556-0.961,1.174-1.275,1.812
	C52.63,20.466,53.81,20.35,54.937,20.357z"/>
<path fill="#FFFFFF" d="M59.394,21.24c0.314,0.146,0.607,0.309,0.877,0.488c1.207-0.319,2.523-0.593,3.926-0.807
	c-1.4-1.03-3.006-1.788-4.75-2.201c-1.09,0.521-2.076,1.111-2.951,1.734C57.566,20.585,58.548,20.847,59.394,21.24z"/>
<path fill="#FFFFFF" d="M46.216,28.506c-0.789,0.227-1.732,0.531-2.789,0.933c-0.045,0.277-0.092,0.554-0.117,0.837
	C44.4,29.554,45.392,28.962,46.216,28.506z"/>
<path fill="#FFFFFF" d="M48.083,26.406c-0.588-0.529-1.543-1.295-2.742-1.997c-0.344,0.534-0.648,1.094-0.914,1.678
	c0.098-0.001,0.205-0.007,0.299-0.007C46.24,26.08,47.373,26.251,48.083,26.406z"/>
<path fill="#FFFFFF" d="M53.117,35.344c-0.979,0.368-1.971,0.655-2.949,0.862c0.049,2.049,0.174,4.434,0.42,7.098
	c1.758,0.87,3.729,1.371,5.822,1.371c2.723,0,5.254-0.827,7.354-2.244c-2.564-3.505-5.113-6.42-7.301-8.695
	C55.443,34.348,54.32,34.893,53.117,35.344z"/>
<path fill="#FFFFFF" d="M43.248,31.52c0,1.247,0.186,2.448,0.51,3.589c1.699-2.973,3.314-5.183,4.316-6.452
	C47.037,29.17,45.294,30.116,43.248,31.52z"/>
<path fill="#FFFFFF" d="M47.441,21.901c-0.027,0.024-0.055,0.047-0.08,0.072c0.031-0.013,0.061-0.029,0.092-0.042L47.441,21.901z"/>
<path fill="#FFFFFF" d="M47.046,27.25c-0.754-0.104-1.771-0.182-3.029-0.137c-0.137,0.385-0.256,0.778-0.355,1.178
	C45.033,27.796,46.197,27.461,47.046,27.25z"/>
<path fill="#FFFFFF" d="M50.193,20.992c0.188-0.482,0.438-0.96,0.729-1.428c-0.959,0.441-1.857,0.99-2.674,1.638l0.135,0.363
	C48.984,21.344,49.589,21.153,50.193,20.992z"/>
<path fill="#FFFFFF" d="M44.197,36.403c1.057,2.639,2.943,4.846,5.338,6.318c-0.203-2.35-0.314-4.475-0.359-6.332
	C47.402,36.668,45.697,36.674,44.197,36.403z"/>
<path fill="#FFFFFF" d="M71.5,34.141c0.002,0.007,0.002,0.015,0.004,0.022c0.004-0.006,0.006-0.01,0.01-0.016
	C71.509,34.146,71.505,34.144,71.5,34.141z"/>
<path fill="#FFFFFF" d="M73.585,25.934c2.184,0.645,4.439,1.524,6.727,2.7c0.23,0.098,3.811,1.658,7.653,4.979
	c-0.133-0.796-0.332-1.581-0.604-2.351c-0.818-2.33-2.737-4.749-5.401-6.813l0.006-0.005c-0.904-0.677-1.846-1.312-2.824-1.902
	c-1.262-0.293-2.484-0.507-3.678-0.674c-0.902,0.835-1.684,1.793-2.322,2.851c0.082,0.193,0.174,0.381,0.244,0.58
	C73.46,25.509,73.527,25.72,73.585,25.934z"/>
<path fill="#FFFFFF" d="M88.135,35.14c-4.104-3.796-8.184-5.574-8.249-5.601c-2.057-1.058-4.088-1.871-6.059-2.485
	c0.332,2.161-0.055,4.442-1.045,6.69c2.037,1.251,4.039,2.719,5.916,4.443c0.049,0.041,2.652,2.297,5.641,6.487
	c0.02,0,0.039,0.003,0.059,0.003c0.521,0,1.035-0.039,1.541-0.098C87.527,41.433,88.311,38.218,88.135,35.14z"/>
<path fill="#FFFFFF" d="M87.109,44.394c2.307-0.483,4.383-1.58,6.072-3.1c-1.188-1.984-2.588-3.708-4.031-5.17
	C89.123,38.844,88.408,41.642,87.109,44.394z"/>
<path fill="#FFFFFF" d="M89.096,34.638c1.387,1.317,2.77,2.865,4.004,4.657c-1.213-3.224-2.893-6.193-4.973-8.837
	c0.062,0.156,0.123,0.314,0.178,0.473C88.73,32.136,88.99,33.376,89.096,34.638z"/>
<path fill="#FFFFFF" d="M78.037,38.935c-1.805-1.658-3.729-3.074-5.688-4.284c-0.15,0.291-0.316,0.581-0.486,0.87
	c1.564,4.902,5.918,8.557,11.201,9.089C80.357,40.946,78.087,38.979,78.037,38.935z"/>
<path fill="#FFFFFF" d="M71.31,32.888c0.209,0.117,0.42,0.229,0.629,0.352c0.943-2.201,1.258-4.422,0.816-6.503
	c-0.188-0.052-0.371-0.095-0.559-0.144c-0.613,1.521-0.959,3.18-0.959,4.922C71.238,31.978,71.263,32.437,71.31,32.888z"/>
<path fill="#FFFFFF" d="M38.882,23.551c-2.404-3.154-6.189-5.197-10.459-5.197c-7.271,0-13.164,5.89-13.164,13.161
	c0,5.791,3.746,10.699,8.943,12.459C26.578,35.896,31.705,28.606,38.882,23.551z"/>
<path fill="#FFFFFF" d="M68.248,25.789c-2.045-0.3-3.98-0.418-5.762-0.426c0.068,1.101-0.248,2.264-0.889,3.411
	c2.48,0.761,5.205,1.792,7.953,3.175c0.004-0.146,0.021-0.288,0.021-0.434C69.572,29.459,69.087,27.521,68.248,25.789z"/>
<path fill="#FFFFFF" d="M56.41,18.354c-1.125,0-2.211,0.156-3.254,0.422C54.255,18.574,55.341,18.433,56.41,18.354L56.41,18.354z"/>
<path fill="#FFFFFF" d="M84.398,18.354c-2.6,0-5.016,0.763-7.055,2.062c7.99,4.042,13.989,10.827,16.95,19.233
	c0.045,0.128,0.08,0.257,0.123,0.386c1.955-2.297,3.141-5.268,3.141-8.52C97.557,24.244,91.664,18.354,84.398,18.354z"/>
</svg>
