<svg xmlns="http://www.w3.org/2000/svg" width="180.28" height="26.403">
    <path d="M139.57 2.004h3.181l5.366 18.849h.066l5.665-18.849h2.915l-7.255 23.123h-2.915l-7.03-23.123zm20.53 0h2.915v23.123h-2.915v-23.123zm7.09 20.373l9.41-17.855h-9.109v-2.518h12.588v2.518l-9.706 18.087h9.904v2.518h-13.085v-2.75zm-70.863-9.69h6.193v11.391c-1.656.895-3.445 1.26-5.332 1.26-8.113 0-10.1-7.617-10.1-12.021 0-5.928 3.543-11.558 10.033-11.558 1.854 0 4.139.729 4.834 1.126l-.1 2.251c-.9-.695-3.116-1.457-4.872-1.457-3.311 0-7.715 2.517-7.715 9.835 0 4.239 1.92 9.902 8.014 9.902 1.191 0 2.119-.134 3.18-.696v-8.113h-4.141v-1.92zm11.363-10.695h9.803v1.92h-7.75v8.212h7.385v1.92h-7.385v9.14h8.113v1.921h-10.16v-23.113zm14.7 0h3.014c7.682 0 11.293 3.742 11.293 11.226 0 6.722-3.279 11.888-10.73 11.888h-3.57v-23.114zm2.053 21.193h2.119c5.133 0 7.949-3.841 7.949-9.636 0-3.609-.564-9.636-8.312-9.636h-1.756v19.272zm-86.968-22.609l-.035.044.457-.118-.422.074zm5.355-.576c-.553.007-1.115.038-1.68.08.479 0 .949.029 1.416.079l.264-.159zm-28.093 18.321c.215-1.603.771-3.23 1.627-4.828-2.006 2.541-3.666 5.319-4.939 8.252 1.079-1.254 2.191-2.393 3.312-3.424zm8.959-6.251c.168-.911.57-1.844 1.172-2.756-1.697.344-3.619.904-5.748 1.781-1.586 1.991-2.684 4.091-3.184 6.165 2.654-2.256 5.33-3.94 7.76-5.19zm1.66 3.124c.195.25.434.479.701.689.092-.455.158-.918.201-1.389-.299.227-.598.456-.902.7zm-.774.636c-2.604 2.188-5.354 5.026-7.66 8.581.246.401.529.783.842 1.148 3.863-1.445 6.865-4.646 8.027-8.639-.472-.319-.883-.681-1.209-1.09zm-8.672 10.282c.291-.062.576-.141.859-.223-.143-.182-.305-.354-.434-.543l-.425.766zm-.718-3.013c-.377-1.067-.557-2.178-.557-3.31-1.508 1.467-2.988 3.137-4.387 5.041-.125.379-.223.768-.336 1.151 1.043.265 2.127.421 3.252.421.502 0 .998-.035 1.486-.09.357-.658.717-1.312 1.104-1.93-.217-.411-.404-.841-.562-1.283zm9.41-10.372c-.031.506.033 1 .199 1.467l.049.13c.502-.4.988-.763 1.471-1.115-.002-.425-.023-.844-.064-1.259-.534.237-1.087.493-1.655.777zm.244-1.227c.432-.206.85-.393 1.262-.571-.078-.438-.178-.869-.297-1.291-.434.619-.76 1.245-.965 1.862zm-.988 3.028c-.146-.416-.229-.847-.248-1.288-2.502 1.337-5.246 3.146-7.936 5.578-.129 1.356.016 2.685.461 3.948.076.217.162.43.256.638 2.332-3.478 5.066-6.264 7.654-8.425-.07-.147-.133-.297-.187-.451zm-3.319-5.048c1.756-.62 3.348-1.021 4.779-1.278-.281-.68-.627-1.326-1.016-1.943-1.395 1.006-2.667 2.083-3.763 3.221zm23.108-5.637c-1.012-.458-2.24-.709-3.59-.757-1.754 1.448-2.979 2.935-3.705 3.943 1.306-.789 3.808-2.121 7.295-3.186zm-5.176-.724c-.893.066-1.82.21-2.758.433-.412 1.271-.506 2.509-.508 3.361.59-.884 1.662-2.314 3.266-3.794zm7.533 3c-.234-.603-.641-1.137-1.201-1.582-3.02.839-5.348 1.913-6.863 2.732 1.806-.469 4.611-1.025 8.064-1.15zm-11.437-2.258c-.365.11-.729.232-1.092.366l.74 1.977c.035-.685.133-1.494.352-2.343zm10.824 6.357c.625-1.056.928-2.12.842-3.112-4.223.129-7.459.929-9.061 1.413 1.672.204 4.649.673 8.219 1.699zm-12.848-5.624c-.59.25-1.158.522-1.699.814 1.256.762 2.219 1.573 2.795 2.109l-1.096-2.923zm12.262 6.492c-4.086-1.148-7.332-1.547-8.584-1.668.971.802 2.83 2.413 5.143 4.773 1.427-.936 2.601-2.003 3.441-3.105zm9.412 3.674c-2.916-1.504-5.818-2.601-8.43-3.388-.893 1.265-2.166 2.483-3.725 3.541 2.184 2.281 4.707 5.18 7.244 8.646 2.671-2.115 4.501-5.238 4.911-8.799zm-19.09-4.861c-.092.952-.279 3.389-.236 7.016.867-.193 1.744-.454 2.615-.781 1.068-.4 2.07-.875 2.984-1.404-2.59-2.627-4.574-4.278-5.303-4.863l-.06.032zm11.858-4.017l.068.212.373-.001c1.551 0 3.219.102 4.965.327-.66-1.087-1.473-2.068-2.41-2.918-1.436.183-2.783.434-4.023.735.464.483.81 1.035 1.027 1.645zm-13.09 11.228c-.045-3.156.086-5.453.186-6.703-.854 1.032-2.688 3.389-4.645 6.797 1.346.203 2.871.169 4.459-.094zm.469-8.196c-.213.08-.373.174-.486.259l.07.065c.129-.014.289-.048.471-.116.277-.104.465-.232.576-.334-.169-.013-.364.026-.631.126zm5.314-6.831c.844-.672 1.814-1.325 2.889-1.924-.467-.05-.938-.079-1.416-.079-1.068.079-2.154.22-3.254.422l-.457.118c-.543.556-.961 1.174-1.275 1.812 1.206-.24 2.386-.356 3.513-.349zm4.457.883c.314.146.607.309.877.488 1.207-.319 2.523-.593 3.926-.807-1.4-1.03-3.006-1.788-4.75-2.201-1.09.521-2.076 1.111-2.951 1.734 1.07.131 2.052.393 2.898.786zm-13.178 7.266c-.789.227-1.732.531-2.789.933-.045.277-.092.554-.117.837 1.09-.722 2.082-1.314 2.906-1.77zm1.867-2.1c-.588-.529-1.543-1.295-2.742-1.997-.344.534-.648 1.094-.914 1.678l.299-.007c1.514 0 2.647.171 3.357.326zm5.034 8.938c-.979.368-1.971.655-2.949.862.049 2.049.174 4.434.42 7.098 1.758.87 3.729 1.371 5.822 1.371 2.723 0 5.254-.827 7.354-2.244-2.564-3.505-5.113-6.42-7.301-8.695-1.02.612-2.143 1.157-3.346 1.608zm-9.869-3.824c0 1.247.186 2.448.51 3.589 1.699-2.973 3.314-5.183 4.316-6.452-1.037.513-2.78 1.459-4.826 2.863zm4.193-9.619l-.08.072.092-.042-.012-.03zm-.395 5.349c-.754-.104-1.771-.182-3.029-.137-.137.385-.256.778-.355 1.178 1.371-.495 2.535-.83 3.384-1.041zm3.147-6.258c.188-.482.438-.96.729-1.428-.959.441-1.857.99-2.674 1.638l.135.363c.601-.221 1.206-.412 1.81-.573zm-5.996 15.411c1.057 2.639 2.943 4.846 5.338 6.318-.203-2.35-.314-4.475-.359-6.332-1.774.279-3.479.285-4.979.014zm27.303-2.262l.004.022.01-.016-.014-.006zm2.085-8.207c2.184.645 4.439 1.524 6.727 2.7.23.098 3.811 1.658 7.653 4.979-.133-.796-.332-1.581-.604-2.351-.818-2.33-2.737-4.749-5.401-6.813l.006-.005c-.904-.677-1.846-1.312-2.824-1.902-1.262-.293-2.484-.507-3.678-.674-.902.835-1.684 1.793-2.322 2.851.082.193.174.381.244.58.074.21.141.421.199.635zm14.55 9.206c-4.104-3.796-8.184-5.574-8.249-5.601-2.057-1.058-4.088-1.871-6.059-2.485.332 2.161-.055 4.442-1.045 6.69 2.037 1.251 4.039 2.719 5.916 4.443.049.041 2.652 2.297 5.641 6.487l.059.003c.521 0 1.035-.039 1.541-.098 1.588-3.146 2.372-6.361 2.196-9.439zm-1.026 9.254c2.307-.483 4.383-1.58 6.072-3.1-1.188-1.984-2.588-3.708-4.031-5.17-.027 2.72-.742 5.518-2.041 8.27zm1.987-9.756c1.387 1.317 2.77 2.865 4.004 4.657-1.213-3.224-2.893-6.193-4.973-8.837l.178.473c.425 1.205.685 2.445.791 3.707zm-11.059 4.297c-1.805-1.658-3.729-3.074-5.688-4.284-.15.291-.316.581-.486.87 1.564 4.902 5.918 8.557 11.201 9.089-2.707-3.664-4.977-5.631-5.027-5.675zm-6.727-6.047l.629.352c.943-2.201 1.258-4.422.816-6.503l-.559-.144c-.613 1.521-.959 3.18-.959 4.922.001.463.026.922.073 1.373zm-32.428-9.337c-2.404-3.154-6.189-5.197-10.459-5.197-7.271 0-13.164 5.89-13.164 13.161 0 5.791 3.746 10.699 8.943 12.459 2.376-8.078 7.503-15.368 14.68-20.423zm29.366 2.238c-2.045-.3-3.98-.418-5.762-.426.068 1.101-.248 2.264-.889 3.411 2.48.761 5.205 1.792 7.953 3.175l.021-.434c.001-2.056-.484-3.994-1.323-5.726zm-11.838-7.435c-1.125 0-2.211.156-3.254.422 1.099-.202 2.185-.343 3.254-.422zm27.988 0c-2.6 0-5.016.763-7.055 2.062 7.99 4.042 13.989 10.827 16.95 19.233l.123.386c1.955-2.297 3.141-5.268 3.141-8.52 0-7.271-5.893-13.161-13.159-13.161z" fill="#fff"/>
</svg>
