<svg xmlns="http://www.w3.org/2000/svg" version="1.1" viewBox="0 0 226 33">
<g fill="#5f9fdb">
<path d="m174.46 2.4058h3.9762l6.7075 23.561h0.0825l7.0825-23.561h3.6438l-9.0688 28.904h-3.6438l-8.78-28.904"/>
<path d="m200.13 31.31h3.6438v-28.904h-3.6438v28.904z"/>
<path d="m208.99 27.872 11.76-22.32h-11.39v-3.1462h15.735v3.1462l-12.132 22.61h12.38v3.1475h-16.36v-3.438"/>
</g>
<g fill="#154281">
<path d="m120.41 15.76h7.7412v14.239c-2.07 1.1188-4.3062 1.575-6.665 1.575-10.141 0-12.624-9.5212-12.624-15.026 0-7.41 4.4288-14.448 12.541-14.448 2.3162 0 5.1738 0.91125 6.0425 1.4088l-0.125 2.8138c-1.1175-0.86875-3.8888-1.8212-6.0838-1.8212-4.1375 0-9.6438 3.1462-9.6438 12.294 0 5.2988 2.4 12.378 10.018 12.378 1.4888 0 2.6488-0.1675 3.975-0.87v-10.144h-5.1762v-2.4"/>
<path d="m134.61 2.3908h12.254v2.4h-9.6875v10.266h9.2312v2.4h-9.2312v11.425h10.141v2.4012h-12.708v-28.892"/>
<path d="m155.55 28.882h2.6488c6.4162 0 9.9375-4.8012 9.9375-12.045 0-4.5125-0.70625-12.045-10.391-12.045h-2.195v24.09zm-2.57-26.491h3.7675c9.6025 0 14.116 4.6775 14.116 14.032 0 8.4025-4.0988 14.86-13.412 14.86h-4.4712v-28.892"/>
</g>
<g fill="#1170b8">
<path d="m18.421 22.802c0.26875-2.0025 0.96375-4.0375 2.0338-6.035-2.5075 3.1762-4.5825 6.6488-6.1738 10.316 1.35-1.5688 2.7388-2.9925 4.14-4.2812"/>
<path d="m29.619 14.988c0.21-1.1388 0.7125-2.305 1.465-3.445-2.1212 0.43-4.5238 1.13-7.185 2.2262-1.9825 2.4888-3.355 5.1138-3.98 7.7062 3.3175-2.82 6.6625-4.925 9.7-6.4875"/>
<path d="m31.694 18.893c0.24375 0.3125 0.5425 0.59875 0.87625 0.86125 0.115-0.56875 0.1975-1.1475 0.25125-1.735-0.3725 0.2825-0.74625 0.56875-1.1275 0.87375"/>
<path d="m30.727 19.688c-3.255 2.735-6.6925 6.2825-9.575 10.726 0.3075 0.50125 0.66125 0.97875 1.0525 1.435 4.8288-1.8062 8.5812-5.8062 10.034-10.798-0.59125-0.4-1.1038-0.8525-1.5112-1.3638"/>
<path d="m19.887 32.541c0.36375-0.07875 0.72-0.17625 1.0738-0.27875-0.1775-0.22625-0.38-0.44125-0.54125-0.67875-0.18625 0.3075-0.35375 0.64125-0.5325 0.9575"/>
<path d="m18.989 28.774c-0.47125-1.3338-0.69625-2.7225-0.69625-4.1375-1.885 1.8338-3.735 3.9212-5.4825 6.3012-0.15625 0.47375-0.27875 0.96-0.42 1.44 1.3038 0.33 2.6588 0.52625 4.065 0.52625 0.6275 0 1.2475-0.04375 1.8575-0.1125 0.44625-0.8225 0.89625-1.6412 1.38-2.4125-0.27125-0.515-0.50625-1.0525-0.70375-1.605"/>
<path d="m30.752 15.81c-0.03875 0.6325 0.04125 1.25 0.24875 1.8338 0.0175 0.055 0.03875 0.10875 0.06125 0.1625 0.6275-0.5 1.235-0.95375 1.8388-1.3938-0.0025-0.53-0.03-1.055-0.08125-1.5725-0.66625 0.295-1.3575 0.615-2.0675 0.97"/>
<path d="m31.057 14.276c0.54-0.2575 1.0625-0.49125 1.5775-0.71375-0.0975-0.5475-0.2225-1.0862-0.37125-1.6138-0.5425 0.7725-0.95 1.555-1.2062 2.3275"/>
<path d="m29.822 18.061c-0.1825-0.52-0.28625-1.0588-0.31-1.61-3.1275 1.6712-6.5575 3.9312-9.92 6.9725-0.16 1.695 0.02 3.3562 0.57625 4.935 0.09625 0.27125 0.2025 0.5375 0.32 0.7975 2.915-4.3475 6.3338-7.83 9.5688-10.531-0.08875-0.1825-0.16625-0.37125-0.235-0.5625v-0.0013"/>
<path d="m25.673 11.751c2.195-0.775 4.185-1.2762 5.9738-1.5975-0.35125-0.85-0.78375-1.6575-1.2688-2.4288-1.7462 1.2575-3.335 2.6038-4.705 4.0262"/>
<path d="m29.528 6.497c-3.005-3.9425-7.736-6.4962-13.074-6.4962-9.0888 0-16.455 7.3612-16.455 16.45 0 7.2388 4.6825 13.375 11.179 15.574 2.9688-10.098 9.3775-19.209 18.35-25.528"/>
</g>
<g fill="#5f9fdb">
<path d="m54.558 4.7045c-1.265-0.5725-2.8-0.88625-4.4875-0.94625-2.1925 1.81-3.7225 3.6675-4.6312 4.9288 1.6338-0.98625 4.7612-2.6512 9.1188-3.9825"/>
<path d="m48.088 3.7995c-1.1162 0.0825-2.275 0.2625-3.4475 0.54125-0.515 1.5888-0.6325 3.1362-0.635 4.2012 0.7375-1.105 2.0775-2.8925 4.0825-4.7425"/>
<path d="m57.504 7.5495c-0.292-0.7537-0.801-1.4213-1.501-1.9775-3.775 1.05-6.685 2.3912-8.5788 3.415 2.2575-0.58625 5.7638-1.2812 10.08-1.4375"/>
<path d="m43.208 4.727c-0.45625 0.1375-0.91125 0.29-1.365 0.4575l0.925 2.47c0.045-0.855 0.16625-1.8662 0.44-2.9275"/>
<path d="m57.922 13.024c3.1 0.95125 6.5062 2.24 9.9412 3.9688 0.005-0.18125 0.0275-0.35875 0.0275-0.5425 0-2.5688-0.60625-4.9912-1.6562-7.1575-2.5562-0.375-4.975-0.5225-7.2012-0.5325 0.085 1.375-0.31 2.83-1.1112 4.2638"/>
<path d="m56.738 12.673c0.78125-1.32 1.16-2.65 1.0525-3.89-5.2788 0.16125-9.3238 1.16-11.326 1.765 2.09 0.255 5.8112 0.8425 10.274 2.125"/>
<path d="m40.678 5.6432c-0.7375 0.3125-1.4475 0.6525-2.1238 1.0175 1.57 0.9525 2.7738 1.9662 3.4938 2.6362l-1.37-3.6538"/>
<path d="m56.006 13.758c-5.1075-1.435-9.165-1.9338-10.73-2.085 1.2138 1.0025 3.5375 3.0162 6.4288 5.9662 1.7838-1.17 3.2512-2.5038 4.3012-3.8812"/>
<path d="m67.771 18.351c-3.645-1.88-7.2725-3.2512-10.538-4.235-1.115 1.58-2.7075 3.1038-4.655 4.425 2.7288 2.8525 5.8838 6.475 9.055 10.808 3.3375-2.6425 5.625-6.5462 6.1375-10.998"/>
<path d="m43.908 12.274c-0.115 1.19-0.34875 4.2362-0.295 8.77 1.0838-0.2425 2.18-0.5675 3.2688-0.9775 1.335-0.5 2.5875-1.0938 3.73-1.755-3.2375-3.2838-5.7175-5.3475-6.6275-6.0788-0.025 0.01375-0.05 0.0275-0.07625 0.04125"/>
<path d="m58.731 7.2532c0.02875 0.0875 0.05875 0.17625 0.085 0.265 0.15375-0.00125 0.31-0.00125 0.46625-0.00125 1.9388 0 4.0238 0.1275 6.2062 0.4075-0.825-1.3588-1.84-2.585-3.0125-3.6475-1.7938 0.22875-3.4788 0.5425-5.0288 0.91875 0.58125 0.60375 1.0125 1.295 1.2838 2.0575"/>
<path d="m42.368 21.288c-0.05625-3.945 0.1075-6.8162 0.2325-8.3788-1.0675 1.29-3.36 4.2362-5.8062 8.4962 1.6825 0.25375 3.5888 0.2125 5.5738-0.1175"/>
<path d="m49.597 2.5045c1.055-0.84 2.2675-1.6562 3.6112-2.405-0.58375-0.0625-1.1725-0.09875-1.77-0.09875-1.3362 0.09875-2.6938 0.275-4.0675 0.5275-0.19125 0.04875-0.38375 0.09125-0.57125 0.1475-0.67875 0.69375-1.2012 1.4662-1.595 2.265 1.5088-0.3 2.9838-0.445 4.3925-0.43625"/>
<path d="m55.168 3.6082c0.3925 0.1825 0.75875 0.38625 1.0962 0.61 1.5088-0.39875 3.1538-0.74125 4.9075-1.0088-1.7512-1.2875-3.7575-2.235-5.9375-2.7512-1.3625 0.65-2.595 1.3888-3.6888 2.1675 1.3375 0.16375 2.565 0.49125 3.6225 0.9825"/>
<path d="m38.696 12.691c-0.98625 0.28375-2.165 0.66375-3.4862 1.1662-0.05625 0.34625-0.115 0.6925-0.14625 1.0462 1.3625-0.9025 2.6025-1.6425 3.6325-2.2125"/>
<path d="m41.029 10.066c-0.735-0.66125-1.9288-1.62-3.4275-2.4962-0.43 0.6675-0.81125 1.3675-1.1425 2.0975 0.12125-0.0025 0.25625-0.01 0.37375-0.01 1.8912 0 3.3075 0.215 4.1962 0.40875"/>
<path d="m47.322 21.238c-1.2225 0.46-2.4638 0.81875-3.6862 1.0775 0.06125 2.5612 0.2175 5.5425 0.525 8.8725 2.1975 1.0875 4.66 1.7138 7.2775 1.7138 3.4038 0 6.5675-1.0338 9.1925-2.805-3.2062-4.3812-6.3925-8.025-9.1262-10.869-1.275 0.765-2.6788 1.4462-4.1825 2.01"/>
<path d="m34.986 16.458c0 1.5588 0.2325 3.06 0.6375 4.4862 2.1238-3.715 4.1425-6.4788 5.395-8.065-1.2962 0.64125-3.4738 1.8238-6.0325 3.5788"/>
<path d="m40.227 4.4345c-0.03375 0.03-0.06875 0.05875-0.1 0.09 0.03875-0.01625 0.075-0.03625 0.115-0.0525l-0.015-0.0375"/>
<path d="m39.733 11.121c-0.9425-0.13-2.2138-0.2275-3.7862-0.17125-0.17125 0.48125-0.32 0.9725-0.445 1.4738 1.7138-0.62 3.1688-1.0388 4.2312-1.3025"/>
<path d="m43.667 3.2982c0.235-0.6025 0.54625-1.2 0.91-1.785-1.1988 0.55125-2.3212 1.2375-3.3412 2.0462l0.1675 0.45375c0.7525-0.275 1.5088-0.51375 2.2638-0.715"/>
<path d="m36.172 22.562c1.3212 3.2988 3.6788 6.0575 6.6725 7.8975-0.25375-2.9362-0.39375-5.5925-0.44875-7.915-2.2175 0.34875-4.3488 0.355-6.2238 0.0175"/>
</g>
<g fill="#a4ccdb">
<path d="m72.907 9.4758c2.73 0.80625 5.5488 1.905 8.4088 3.375 0.2875 0.1225 4.7625 2.0725 9.565 6.225-0.165-0.995-0.415-1.9762-0.75375-2.9388-1.0225-2.9125-3.4212-5.9362-6.7512-8.5162l0.0075-0.0075c-1.13-0.84625-2.3075-1.64-3.53-2.3775-1.5775-0.36625-3.1062-0.6325-4.5975-0.84125-1.1275 1.0438-2.105 2.2412-2.9025 3.5625 0.1025 0.24125 0.21625 0.47625 0.305 0.725 0.0925 0.2625 0.175 0.5275 0.24875 0.79375"/>
<path d="m91.094 20.983c-5.13-4.745-10.23-6.9675-10.311-7.0012-2.57-1.3225-5.11-2.3388-7.5725-3.1062 0.415 2.7012-0.06875 5.5525-1.3062 8.3625 2.5462 1.5625 5.0488 3.3975 7.395 5.5538 0.06125 0.05125 3.315 2.8712 7.0512 8.1088 0.02375 0 0.04875 0.0037 0.0725 0.0037 0.6525 0 1.2938-0.04875 1.9262-0.12125 1.985-3.9338 2.965-7.9525 2.745-11.8"/>
<path d="m98.792 26.618c0.05625 0.16 0.1 0.32125 0.15375 0.4825 2.4438-2.8712 3.9262-6.585 3.9262-10.65 0-9.0888-7.3662-16.45-16.449-16.45-3.25 0-6.27 0.9525-8.8188 2.5762 9.9888 5.0525 17.486 13.534 21.188 24.041"/>
<path d="m89.812 32.551c2.8838-0.60375 5.4788-1.975 7.59-3.875-1.4838-2.48-3.235-4.635-5.0388-6.4625-0.03375 3.4-0.9275 6.8975-2.5512 10.338"/>
<path d="m92.296 20.356c1.7338 1.6462 3.4612 3.5812 5.005 5.8212-1.5162-4.0288-3.6162-7.7412-6.2162-11.046 0.07875 0.195 0.15375 0.3925 0.2225 0.59125 0.5325 1.5062 0.85625 3.0562 0.98875 4.6338"/>
<path d="m78.472 25.727c-2.2562-2.0725-4.66-3.8425-7.1088-5.355-0.18875 0.36375-0.39625 0.72625-0.60875 1.0875 1.9562 6.1275 7.3975 10.695 14.001 11.361-3.3838-4.5788-6.22-7.0375-6.2838-7.0938"/>
<path d="m70.063 18.168c0.26125 0.14625 0.525 0.28625 0.78625 0.44 1.1788-2.7525 1.5725-5.5288 1.02-8.1288-0.23375-0.06625-0.46375-0.11875-0.6975-0.18-0.7675 1.9025-1.1988 3.975-1.1988 6.1525 0 0.57875 0.03125 1.1525 0.09 1.7162"/>
</g>
</svg>