<svg xmlns="http://www.w3.org/2000/svg" viewBox="0 0 205 205">
    <path d="M125.86 99.3c-2.82 2.81-6.47 4.2-10.19 4.21-3.45-.01-6.92-1.22-9.62-3.65-.08-.12-6.01-7-15.75-7.51-6.23-.31-13.08 2.22-17.74 6.85l-35 35c-4.53 4.53-6.85 10.5-6.83 16.48-.02 5.94 2.26 11.93 6.81 16.47 4.53 4.52 10.5 6.78 16.44 6.78s11.95-2.28 16.51-6.82l21.91-21.94c6.77 2.62 13.91 3.96 21.06 3.96 4.37 0 8.77-.5 13.08-1.49-.19.17-40 40-40 40-9.6 9.57-22.15 14.37-34.75 14.37-12.62 0-25.19-4.79-34.749-14.36-9.586-9.59-14.375-22.18-14.375-34.78s4.762-25.17 14.375-34.75l39.459-39.46c9.58-9.58 22.14-14.34 34.73-14.35 12.58.01 25.16 4.79 34.76 14.38 3.53 3.53 6.42 7.49 8.69 11.8l-8.82 8.81M78.16 57.1c4.28-.99 8.65-1.47 13.04-1.47 7.15 0 14.32 1.32 21.11 3.95l21.92-21.93c4.51-4.55 10.5-6.83 16.42-6.83 5.95 0 11.96 2.28 16.48 6.83 4.38 4.34 6.84 10.21 6.84 16.43-.02 6.18-2.45 12.09-6.84 16.46l-34.99 35.04c-1.13 1.09-7.45 6.74-16.46 6.77-9.87.05-14.08-4.96-17.1-7.54-3.07-2.59-6.11-3.57-9.59-3.57-3.7 0-7.35 1.42-10.15 4.21l-8.79 8.77c2.23 4.28 5.09 8.3 8.67 11.85 9.56 9.6 22.11 14.37 34.72 14.38 12.6-.01 25.17-4.81 34.77-14.38l39.45-39.48c9.22-9.23 14.5-21.32 14.39-34.49-.14-13.02-5.17-25.74-14.39-34.97-9.61-9.57-22.17-14.35-34.76-14.37-12.61.02-25.17 4.76-34.75 14.36 0 0-39.8 39.81-39.99 39.98" fill="#fff"/>
</svg>