<svg xmlns="http://www.w3.org/2000/svg" version="1.1" viewBox="0 0 308 39">
<g fill="#154281">
<path fill-rule="evenodd" d="m21.946 20.549h2.25c0.65975 0.02925 1.2002 0.02925 1.8306 0.24012 2.0692 0.74962 2.1889 2.9996 2.1889 3.5694 0 0.24075-0.02975 0.87062-0.23975 1.5005-0.23962 0.6299-0.5995 1.0498-0.77975 1.2305-0.95988 0.95948-2.1601 1.019-3.4204 1.0791h-1.83v-7.6196zm0-9.1495h1.8296c0.33012 0 1.9204-0.12012 3.0005 0.80962 0.96 0.84038 1.0195 2.2198 1.0195 2.58 0 1.5601-0.77975 2.9405-2.3696 3.3599-0.4805 0.15-0.83988 0.18075-1.7998 0.18075h-1.681v-6.931zm-2.639-2.1906v21.179h4.4395c1.7104 0 2.4599-0.08985 3.27-0.32959 1.3799-0.41992 3.9301-1.77 3.9301-5.5811 0-1.8891-0.63088-2.9086-1.2001-3.5692-0.7495-0.86975-1.65-1.2295-2.6705-1.6192 0.63088-0.21038 2.3706-0.871 3.0914-2.8202 0.29925-0.81012 0.32962-1.6499 0.32962-1.9502 0-2.6401-1.3804-4.56-3.9902-5.1299-0.84-0.2103-1.59-0.2103-2.43-0.1801h-4.7695"/>
<path fill-rule="evenodd" d="m38.512 21.449c0.18075-2.3101 0.6905-3.5396 1.5904-4.2598 0.48-0.36038 1.0801-0.57038 1.71-0.57038 0.90038 0 1.71 0.42038 2.1899 1.2002 0.51025 0.7505 0.6905 1.7705 0.77988 3.6299h-6.27zm7.9508 5.8799c-1.77 1.0205-2.8506 1.2305-3.8409 1.2305-1.2598 0-1.9799-0.45069-2.3999-0.78028-1.71-1.3501-1.71-3.9902-1.71-4.4088l8.8501-0.03075v-0.63c0-2.0102-0.12012-3.9009-1.1996-5.6401-0.9595-1.5601-2.46-2.4302-4.2906-2.4302-2.9091 0-6.0298 2.1602-6.0298 8.1299 0 3.479 1.2002 5.3394 2.3399 6.3599 1.1704 1.0806 2.4902 1.5298 4.0502 1.5298 1.6494 0 3.1499-0.47998 3.6601-0.68945 0.18025-0.08935 0.35988-0.18115 0.54012-0.30078l0.03025-2.3399"/>
<path d="m52.36 14.88c0.0595 0.80912 0.11962 1.6196 0.14938 2.4298 0.0605 1.0502 0.0605 2.1 0.0605 3.1509v9.9286h2.5499v-9.1489c0.02925-0.57125 0.02925-1.1406 0.21-1.6801 0.2695-0.751 1.02-1.7408 1.77-2.1001 0.35988-0.18025 1.3198-0.39012 1.77-0.39012 0.27 0 0.3305 0.03025 0.4795 0.08938v-2.5196c-0.86912-0.02975-2.4595 0-3.7198 1.8301-0.2695 0.35938-0.50975 0.77925-0.72025 1.1998-0.03-0.931-0.03-1.86-0.15-2.76l-2.4-0.03"/>
<path d="m71.401 14.88h-3.239v-3.9301l-2.6099 0.75v3.18h-2.461v2.0996h2.4604v9.09c0.02975 1.1997-0.02975 2.1899 0.71975 3.2408 0.56988 0.74951 1.4702 1.2598 3.3901 1.2598 0.83988 0 1.3501-0.18066 1.7105-0.3003l0.02925-2.1006c-0.65912 0.27099-1.0498 0.30029-1.3799 0.30029-0.87012 0-1.3199-0.32959-1.5302-0.62989-0.328-0.479-0.328-1.439-0.328-2.009v-8.85h3.2398v-2.0996"/>
<path fill-rule="evenodd" d="m78.442 21.449c0.18012-2.3101 0.69-3.5396 1.5899-4.2598 0.48-0.36038 1.0796-0.57038 1.71-0.57038 0.89988 0 1.7104 0.42038 2.1904 1.2002 0.50925 0.7505 0.6895 1.7705 0.77925 3.6299h-6.2695zm7.9498 5.8799c-1.77 1.0205-2.8501 1.2305-3.8394 1.2305-1.2608 0-1.9805-0.45069-2.3999-0.78028-1.7105-1.3501-1.7105-3.9902-1.7105-4.4088l8.8496-0.03075v-0.63c0-2.0102-0.11962-3.9009-1.1998-5.6401-0.95988-1.5601-2.4599-2.4302-4.29-2.4302-2.9101 0-6.0292 2.1602-6.0292 8.1299 0 3.479 1.1991 5.3394 2.3392 6.3599 1.17 1.0806 2.4902 1.5298 4.0504 1.5298 1.6494 0 3.1499-0.47998 3.6596-0.68945 0.18025-0.08935 0.36088-0.18115 0.54-0.30078l0.02988-2.3399"/>
<path d="m92.499 7.4688v22.92h2.5801v-22.92h-2.58"/>
<path d="m108.56 15.119c-0.35938-0.08988-1.7701-0.48-3.1196-0.48-2.9703 0-4.2013 1.7402-4.5606 2.8799-0.20987 0.65975-0.20987 1.2602-0.20987 1.5 0 1.02 0.0902 2.4 2.0102 3.6304 0.56974 0.36038 1.0492 0.59962 1.2602 0.69 1.2295 0.56975 2.9394 1.1386 2.9394 2.8198 0 0.83985-0.56925 2.3691-2.6996 2.3691-1.2906 0-2.6402-0.62989-2.941-0.77881-0.17912-0.09034-0.35937-0.21094-0.5385-0.2998l-0.23975 2.4301c1.6494 0.56884 2.2793 0.7788 4.019 0.7788 0.24025 0 1.1401 0 1.9199-0.23925 1.9205-0.63135 2.9702-2.4902 2.9702-4.441 0-1.7992-0.7505-2.8506-2.2202-3.81-0.44962-0.26962-0.92962-0.51025-1.3799-0.7495-1.0498-0.51025-2.5795-1.0801-2.5795-2.5499 0-0.72025 0.44962-2.1304 2.3398-2.1304 1.0796 0 2.6998 0.62987 2.7901 0.6905l0.23975-2.3101"/>
<path d="m132.96 19.8c0-1.17-0.0913-1.5601-0.24-2.1602-0.54-1.8599-2.07-3-4.02-3-1.02 0-2.22 0.24025-3.51 1.9498-0.15125 0.18062-0.29963 0.39012-0.42075 0.56988-0.33013-0.59962-0.41938-0.74962-0.68988-1.0796-0.71975-0.96-1.6495-1.4698-2.8795-1.4698-2.0108 0-3.06 1.0791-4.1401 2.5494 0-0.74962 0-1.5299-0.0303-2.2496l-2.31-0.03c0.0298 0.66012 0.0298 1.3194 0.06 1.979v13.53h2.5801v-10.021c0.0307-0.56875 0.0595-0.98925 0.2705-1.499 0.2695-0.77975 1.02-1.5005 1.769-1.7998 0.41988-0.18025 0.7505-0.18025 0.93025-0.18025 0.81101 0 1.2602 0.33012 1.5302 0.57038 0.7505 0.71925 0.78025 1.77 0.81 2.7598v10.17h2.5504v-9.7802c0-0.50925 0.03-1.1094 0.14875-1.6196 0.21125-0.71975 0.81125-1.5292 1.56-1.8891 0.18-0.09038 0.57-0.24125 1.1412-0.271 2.25 0 2.31 2.2802 2.34 2.7905v10.769h2.55v-10.589"/>
<path fill-rule="evenodd" d="m147.31 24.239c0 0.27 0 1.0806-0.27125 1.9204-0.26875 0.83985-0.72 1.3501-0.95875 1.5904-0.66125 0.62989-1.3812 0.8999-2.31 0.8999-0.75 0-1.3212-0.20996-1.8312-0.75098-0.27-0.30029-0.74875-0.93018-0.74875-1.92 0-0.71925 0.29875-1.5894 0.78-2.1304 0.87-0.98975 2.58-1.3501 5.34-1.1988v1.5894zm2.4-3.8389c-0.03-0.90088-0.03-1.8002-0.30125-2.7006-0.68875-2.19-2.7288-3.0899-4.8588-3.0899-2.25 0-3.72 0.81-4.5012 1.23l0.24125 2.3394c1.68-1.2598 2.9988-1.4995 3.93-1.4995 2.01 0 2.67 1.1991 2.91 2.0098 0.24 0.84025 0.18 2.0698 0.18 2.2505-0.39125 0-0.75-0.03075-1.14-0.03075-3.75 0-5.6112 0.90088-6.6612 2.4306-0.75 1.0498-0.81 2.1304-0.81 2.6099 0 1.7099 0.78125 2.8799 1.2 3.33 0.51125 0.53955 1.5612 1.3794 3.39 1.3794 1.8612 0 3.1512-0.93018 4.14-2.4306 0 0.18066-0.03 0.36182-0.03 0.57129 0 0.54004 0.09 1.0806 0.09 1.5894h2.4012c-0.06-0.56983-0.09-1.1387-0.12125-1.71-0.0288-0.65919-0.0588-1.289-0.0588-1.9492v-6.3296"/>
<path d="m156.3 14.88c0.06 1.5 0.03 2.9698 0.03 4.4395v11.07h2.5788v-9.09c0.0613-1.1402 0.09-2.2505 0.78-3.2402 0.57125-0.71925 1.44-1.17 2.3712-1.17 1.7088 0 2.19 1.4098 2.28 1.9195 0.11875 0.45062 0.11875 0.95988 0.15 1.4106v10.169h2.55v-10.679c0-0.60012 0.06-3.0596-1.8912-4.3799-0.36-0.23975-1.2-0.69-2.3688-0.69-2.2212 0-3.36 1.5-3.7812 2.1304-0.11875 0.1495-0.23875 0.33012-0.35875 0.53962 0-0.81012 0.03-1.6206 0-2.4l-2.34-0.03"/>
<path d="m173.64 14.88c0.06 1.5 0.03 2.9698 0.03 4.4395v11.07h2.58v-9.09c0.06-1.1402 0.09-2.2505 0.78-3.2402 0.57-0.71925 1.4388-1.17 2.37-1.17 1.71 0 2.1888 1.4098 2.28 1.9195 0.12 0.45062 0.12 0.95988 0.15 1.4106v10.169h2.55v-10.679c0-0.60012 0.06-3.0596-1.89-4.3799-0.36125-0.23975-1.2012-0.69-2.37-0.69-2.2212 0-3.36 1.5-3.78 2.1304-0.12 0.1495-0.24 0.33012-0.36 0.53962 0-0.81012 0.03-1.6206 0-2.4l-2.34-0.02975"/>
<path d="m202.86 9.6588c-1.98-0.59962-3.78-0.77938-4.53-0.77938-2.4612 0-5.0712 1.0796-6.1212 3.4795-0.41875 0.99075-0.44875 1.9502-0.44875 2.3404 0 2.2198 0.99 3.54 1.59 4.1699 0.83875 0.86962 1.77 1.2602 3.84 2.3999 0.93 0.51025 1.7988 0.9595 2.34 1.9205 0.33 0.56975 0.36 1.1996 0.36 1.4399 0 1.2598-0.78 2.3999-2.01 2.7896-0.24125 0.05956-0.6 0.15039-1.2 0.15039-1.86 0-3.39-0.7207-3.93-1.0205-0.15125-0.08935-0.33125-0.17969-0.48125-0.27001l-0.23875 3.48c2.31 0.83985 3.9888 0.93066 5.01 0.93066 3.9288 0 5.5488-1.9498 6.2688-3.5098 0.57-1.2304 0.63125-2.2802 0.63125-2.7905 0-2.2802-1.14-3.75-1.74-4.3799-0.39125-0.39012-0.93125-0.81-1.98-1.4399-0.51125-0.2705-0.99-0.54012-1.5012-0.81062-0.95875-0.56975-1.4388-0.77975-1.8888-1.1094-0.66125-0.5405-1.05-1.2608-1.05-2.1005 0-0.26962 0.0288-0.80962 0.38875-1.3799 0.78-1.2599 2.34-1.2305 2.7012-1.2305 1.4088 0 2.73 0.48088 3.1488 0.66062 0.21125 0.09037 0.42125 0.21 0.66 0.30025l0.18-3.2411"/>
<path d="m216.82 14.759h-3.12v-4.3804l-3.66 1.1406v3.2398h-2.61v2.7305h2.55l-0.03 8.25c-0.03 1.5292 0.15 3.06 1.5 4.0489 1.1712 0.83984 2.4612 0.81055 2.91 0.81055 1.2 0 2.07-0.20996 2.55-0.3296l-0.09-2.7598c-0.42 0.20996-0.69 0.26954-1.2 0.26954-0.36 0-1.4388 0-1.7988-1.1401-0.12-0.42-0.12-0.75-0.12-1.139v-8.011h3.12v-2.7305"/>
<path fill-rule="evenodd" d="m221.9 8.1288v3.69h3.9588v-3.69h-3.96zm0.09 6.6299v15.63h3.75v-15.63h-3.75"/>
<path d="m230.3 14.759v2.7305h2.61v12.9h3.72v-12.9h2.8188v-2.7305h-2.82v-2.1294c0.03-0.8105 0.06-1.6206 0.84-2.1299 0.33-0.21088 0.72-0.30025 1.11-0.30025 0.60125 0 1.08 0.20988 1.29 0.27l0.0588-2.7905c-0.36-0.0614-1.35-0.2714-2.46-0.2714-1.65 0-2.67 0.51025-3.21 0.98975-0.12 0.089875-0.39 0.39012-0.63 0.81062-0.72 1.1996-0.69 2.5195-0.72 2.9698v2.5795h-2.61"/>
<path d="m252.08 14.759h-3.12v-4.3804l-3.66 1.1406v3.2398h-2.61v2.7305h2.5512l-0.0312 8.25c-0.03 1.5292 0.15 3.06 1.5 4.0489 1.17 0.83984 2.46 0.81055 2.91 0.81055 1.1988 0 2.07-0.20996 2.5488-0.3296l-0.0888-2.7598c-0.42125 0.20996-0.69125 0.26954-1.2 0.26954-0.36 0-1.44 0-1.8-1.1401-0.12-0.41944-0.12-0.74955-0.12-1.1387v-8.012h3.12v-2.7305"/>
<path d="m269.75 14.759h-3.75v9.1504c-0.03 0.80962-0.0888 1.17-0.18 1.5299-0.15 0.51025-0.84 2.1591-2.64 2.1591-0.57 0-0.96-0.1792-1.14-0.29884-0.96125-0.53955-1.0212-1.6505-1.05-2.6098v-9.9307h-3.75v10.081c0.0288 1.4692 0.06 2.9698 1.02 4.1988 1.14 1.5005 3.03 1.6201 3.57 1.6201 2.22 0 3.51-1.3194 3.99-1.98 0.18-0.20996 0.33-0.47949 0.45-0.71875 0.03 0.83935 0.06 1.6196 0.09 2.4288h3.57c-0.12-1.3794-0.12-2.7905-0.18-4.1992v-11.43"/>
<path d="m275.71 14.759c0.12 1.3204 0.15 2.6099 0.18 3.9302v11.7h3.75v-9.149c0.03-0.87162 0.03-1.7105 0.57125-2.4908 0.71875-1.0195 1.74-1.1396 2.19-1.1396 0.23875 0 0.65875 0 1.1688 0.29975 0.9 0.50938 1.05 1.6201 1.05 2.5509v9.9286h3.75v-10.621c0-0.2695 0-1.4091-0.32875-2.3691-0.66125-1.8599-2.3712-2.9101-4.32-2.9101-2.25 0-3.54 1.3799-3.9912 2.0395-0.15 0.21-0.29875 0.4805-0.42 0.7505 0-0.83975-0.06-1.6504-0.0888-2.5205h-3.5112"/>
<path fill-rule="evenodd" d="m300.45 17.369c1.38 0.06063 2.0388 1.1104 2.25 1.4708 0.69 1.3501 0.63 3.5405 0.63 3.7495 0 2.4009-0.36 3.5108-1.23 4.3794-0.21 0.21142-0.69 0.69091-1.56 0.69091-0.99 0-1.53-0.51025-1.7688-0.81054-0.24125-0.29981-0.3625-0.60059-0.42125-0.74901-0.57-1.3809-0.54-3.0302-0.54-3.4209 0-2.5494 0.36-4.17 1.35-4.92 0.51-0.39012 1.05-0.39012 1.29-0.39012zm6.54-0.54c0.03-0.6895 0.09-1.3794 0.12-2.0699h-3.5412c-0.0888 0.81012-0.0888 1.5904-0.0888 2.4-0.09-0.11975-0.27-0.4795-0.54-0.80962-0.24-0.29975-0.51-0.56988-0.78125-0.80962-0.44875-0.36075-1.3188-1.0502-2.76-1.0502-0.68875 0-1.92 0.12012-3.1488 1.2598-1.2612 1.1401-2.34 3.0596-2.34 6.7202 0 2.1299 0.36 4.56 1.83 6.2705 0.96 1.1099 2.13 1.6489 3.63 1.6489 0.81 0 1.38-0.1792 1.65-0.29981 1.38-0.5996 2.22-2.04 2.43-2.3696-0.12 2.3696-0.06 3.5328-0.63 4.6045-0.21 0.38672-0.48 0.74318-0.84 1.0117-0.96 0.71435-2.34 0.77295-2.64 0.77295-1.68 0-3.39-0.74316-3.78-0.92188-0.24-0.11962-0.51-0.26806-0.75-0.38673l-0.18 3.3189c0.99 0.33008 2.64 0.8999 5.13 0.8999 1.11 0 1.8-0.11962 2.2488-0.20897 1.3512-0.3003 2.3112-0.99073 2.7025-1.3208 1.9488-1.6772 2.1288-4.148 2.2188-4.9204 0.03-0.50928 0.06-1.0498 0.06-1.5894v-12.149"/>
<path d="m0 0.005v38.62h2.5801v-38.62h-2.5801"/>
</g>
</svg>